<mxfile host="Electron" modified="2024-08-23T08:26:28.191Z" agent="Mozilla/5.0 (Macintosh; Intel Mac OS X 10_15_7) AppleWebKit/537.36 (KHTML, like Gecko) draw.io/24.4.8 Chrome/124.0.6367.207 Electron/30.0.6 Safari/537.36" etag="7GXvdpqWeTOiZj6YtXx7" version="24.4.8" type="device">
  <diagram name="Page-1" id="8UK-mPWlStraM8LAb9QV">
    <mxGraphModel dx="1311" dy="2174" grid="1" gridSize="10" guides="1" tooltips="1" connect="1" arrows="1" fold="1" page="1" pageScale="1" pageWidth="827" pageHeight="1169" math="0" shadow="0">
      <root>
        <mxCell id="0" />
        <mxCell id="1" parent="0" />
        <mxCell id="AQsv0ITiNXBHTB66A1DP-3" value="" style="shape=image;verticalLabelPosition=bottom;labelBackgroundColor=default;verticalAlign=top;aspect=fixed;imageAspect=0;image=data:image/png,iVBORw0KGgoAAAANSUhEUgAABLAAAAMgCAYAAAAz4JsCAAAAOXRFWHRTb2Z0d2FyZQBNYXRwbG90bGliIHZlcnNpb24zLjkuMiwgaHR0cHM6Ly9tYXRwbG90bGliLm9yZy8hTgPZAAAACXBIWXMAAA9hAAAPYQGoP6dpAADrvklEQVR4nOzdd3hUZfrG8XvSSAESaiC0UENHEFdZK1gQBFF07cCCDVdF/Omi2EVdNDaMKCCgKPa1ICpiQVGsLILSQ++9BEgjbX5/vJ5MQhJImZlzJvP9XFeuOcyZOfMmJ7rL7fM8r8vtdrsFAAAAAAAAOFSI3QsAAAAAAAAAjocACwAAAAAAAI5GgAUAAAAAAABHI8ACAAAAAACAoxFgAQAAAAAAwNEIsAAAAAAAAOBoBFgAAAAAAABwNAIsAAAAAAAAOBoBFgAAAAAAAByNAAsAAAAAAACORoAFAAAAAAAARyPAAgAAAAAAgKMRYAEAAAAAAMDRCLAAAAAAAADgaARYAAAAAAAAcDQCLAAAAAAAADgaARYAAAAAAAAcjQALAAAAAAAAjkaABQAAAAAAAEcjwAIAAAAAAICjEWABAAAAAADA0QiwAAAAAAAA4GgEWAAAAAAAAHA0AiwAAAAAAAA4GgEWAAAAAAAAHI0ACwAAAAAAAI5GgAUAAAAAAABHI8ACAAAAAACAoxFgAQAAAAAAwNEIsAAAAAAAAOBoBFgAAAAAAABwNAIsAAAAAAAAOBoBFgAAAAAAAByNAAsAAAAAAACORoAFAAAAAAAARyPAAgAAAAAAgKMRYAEAAAAAAMDRCLAAAAAAAADgaARYAAAAAAAAcDQCLAAAAAAAADgaARYAAAAAAAAcjQALAAAAAAAAjkaABQAAAAAAAEcjwAIAAAAAAICjEWABAAAAAADA0QiwAAAAAAAA4GgEWAAAAAAAAHA0AiwAAAAAAAA4GgEWAAAAAAAAHI0ACwAAAAAAAI5GgAUAAAAAAABHI8ACAAAAAACAoxFgAQAAAAAAwNEIsAAAAAAAAOBoBFgAAAAAAABwNAIsAAAAAAAAOBoBFgAAAAAAAByNAAsAAAAAAACORoAFAAAAAAAARyPAAgAAAAAAgKMRYAEAAAAAAMDRCLAAAAAAAADgaARYAAAAAAAAcDQCLAAAAAAAADgaARYAAAAAAAAcjQALAAAAAAAAjkaABQAAAAAAAEcjwAIAAAAAAICjEWABAAAAAADA0QiwAAAAAAAA4GgEWAAAAAAAAHA0AiwAAAAAAAA4GgEWAAAAAAAAHI0ACwAAAAAAAI5GgAUAAAAAAABHI8ACAAAAAACAoxFgAQAAAAAAwNEIsAAAAAAAAOBoBFgAAAAAAABwNAIsAAAAAAAAOBoBFgAAAAAAAByNAAsAAAAAAACORoAFAAAAAAAARyPAAgAAAAAAgKMRYAEAAAAAAMDRCLAAAAAAAADgaARYAAAAAAAAcDQCLAAAAAAAADgaARYAAAAAAAAcjQALAAAAAAAAjkaABQAAAAAAAEcjwAIAAAAAAICjEWABAAAAAADA0QiwAAAAAAAA4Ghhdi8A1c+SJUvkdrsVHh5u91IAAAAAAEEgNzdXLpdL3bt3t3sp8BEqsOB1brdbbrfb7mWckNvtVk5OTkCsNZhxnwID98n5uEeBgfsUGLhPzsc9Cgzcp8AQKPcpUP4eisqjAgteZ1VedenSxeaVHF9mZqZWrVqlNm3aKDo62u7loAzcp8DAfXI+7lFg4D4FBu6T83GPAgP3KTAEyn1atmyZ3UuAj1GBBQAAAAAAAEcjwAIAAAAAAICjEWABAAAAAADA0QiwAAAAAAAA4GgEWAAAAAAAAHA0diGErfLz85Wbm2vLZx89erTwMSSELNepKnOfwsPDFRoa6stlAQAAAAD8iAALtnC73dq1a5fS0tJsW0NBQYHCwsK0Y8cOAiwHq+x9iouLU6NGjeRyuXy4OgAAAACAPxBgwRZWeNWwYUNFR0fbEjLk5+fr6NGjqlGjBtU6DlbR++R2u5WZmak9e/ZIkho3buzrJQIAAAAAfIwAC36Xn59fGF7Vq1fP1nVIUmRkJAGWg1XmPkVFRUmS9uzZo4YNG3J/AQAAACDA0TcFv7NmXkVHR9u8ElRn1u+XXTPWAAAAAADeQ4AF2zCbCL7E7xcAAAAAVB8EWAAAAAAAAHA0AiygivLy8vT6669r8ODB6t69u0477TSNGDFCv/76a+Fr+vTpo6SkJL322mulXuOhhx5SUlKSXnzxxcLnkpKS9NFHH0mStm3bpqSkpGJfHTt2VK9evTR69Gjt2LGj2PWmT5+uc889V127dtXgwYOLreWjjz4qdp327durR48euvrqq/Xll19W+PvfsWOHPv/88wq/ryrWrl2r+fPn+/UzAQAAAAD2IcBCwMvIkHJypD17zGNGhv8+++jRoxo6dKhmzJihIUOG6OOPP9aMGTPUunVrDR8+XJ9++mnha8PDw0sNiPLy8vTVV1+Vq+XtxRdf1I8//qgff/xR3333nV588UWtWrVKN998s9xutyTp5Zdf1sSJE3XXXXdp9uzZOumkk3TLLbdo69atxa5lXef777/X22+/re7du+uOO+7Q+++/X6GfwT333KMFCxZU6D1VdfPNN2vZsmV+/UwAAAAAgH3YhRABLTtbSk6WUlKktDQpLk4aNUoaO1aKjPT957/wwgtKTU3VZ599psaNGxc+f//99ys9PV2PP/64+vTpI0nq1auXFixYoF27dqlRo0aFr/31118VHR1duHPe8cTGxqpBgwaFf46Pj9dtt92mu+++W6mpqWrevLmmTp2qu+++W/379y9cy6JFi/T777+rWbNmhe899jrt27dXTk6OnnzySV1wwQWKi4ur9M8FAAAAAABvogILjuF2m+qp8n4dPiyNHy+NG2fCK8k8jhtnnj98uPzX+qt4qUJyc3P14YcfavDgwcXCK8vo0aM1depURf6VpHXt2lUJCQmaO3dusdfNmTNH/fr1q/TQ8dDQUEmmwuv3339XVlaWLrroomLnZ8+erUsuueSE1xo2bJgyMjIK2/MKCgo0ZcoU9e3bV507d1aPHj10ww03aMuWLZKkIUOGaOHChfr4448Lg7odO3bozjvvVK9evdSpUyedddZZevrpp1VQUCBJys/P19NPP62zzz5bnTt31oUXXqh33nmn2Do+/PBD9evXT127dtWAAQP09ttvF76/T58+2r59uyZOnKghQ4ZU6mcGAAAAAAgsBFhwBLdbOuMMqWbN8n0lJkqhoabyqjQpKeZ8YmLZ14iNDVV8fIxiY0N15pkVD7G2bt2qtLQ09ejRo9Tz8fHx6tq1a2HAJEn9+vUrFmDl5OTom2++KRY4lVdBQYFWrVqlSZMmqX379mrZsqU2btyo2NhYpaam6uqrr1avXr00ZMgQLV68uFzXbNasmaKiopSamipJeuONNzR9+nTde++9+vLLL/XSSy9p06ZNevLJJyWZlsbu3burX79++uCDDyRJt9xyi44cOaLXXntNc+fO1YgRIzRt2jR9++23kqS3335bc+fO1fPPP68vv/xS1113nR555BEtWrRIkvTee+8pOTlZt912mz7//HONGjVKM2bM0HPPPSdJ+uCDD9SoUSONGDGi2MwwAAAAAED1RQshHKMiBUiNGpmZV1bl1bHS0qS9e83r9u3zxupKOnTokCTT1lde/fr10/Tp07V7927Fx8frp59+Ut26ddWxY8dyvf/GG28sDMRycnLkdrvVs2dPPfbYYwoJCVF6erqys7P10EMP6a677lJCQoLee+89DRs2TLNmzVLr1q1P+Bm1atXSkSNHJEnNmzfXU089pd69e0uSmjRpogsvvLAwhIuLi1N4eLgiIyNVt25dZWdna9CgQerXr19hVdo///lPTZ06VampqTrvvPO0ZcsWRUdHq2nTpmrYsKGuu+46tWrVSi1btpRkZnjdcssthaFeQkKCDh48qCeffFKjR49W3bp1FRoaqujoaNocAQAAAAQct7tif/+tbp9fWQRYcASXS1qwQMrMLP97wsPNzKvSQqy4OCkhQSqy+V4J+fn5ys7OVmRkpGrVCq3wP8B169aVJKWVlaKVonPnzmrWrJm+/PJLDR06VHPmzKlQ9dXjjz+ubt26SZLCwsJUr169whZF67ns7Gzdd999OvvssyVJnTp10pIlS/Tmm2/q4YcfPuFnpKenq1atWpJMu96ff/6pF154QRs3btTGjRu1bt06xcfHl/reyMhIXXfddZo7d66WLl2qzZs3KzU1Vfv27StsAbz22mv1zTff6Oyzz1aHDh10+umn66KLLlK9evV04MAB7dq1S88995xeeOEFSZLb7Zbb7dbRo0e1bdu2coVwAAAAAOy3aJH0wgvS99+bAoOEBOncc83M4r/++7XOOcec79VL+vnn0q9z1VXSe+9Jw4ZJM2aY5/75T2n+fGnTJvPnTz6J04MPNiv2vpAQqXZt6ZRTpIcflk4/3XPu6FHp0UelN980a2vXTrr/fumKKzyvOfbviKGhUmysdPLJZvbygAEV/5nMni198IH0xhsVf29Vbdsm3Xyz9NJLplsp0NBCCMdwuaSYmPJ/5eaaf2mUZtQoc76816pM+tysWTPVr1+/zPa89evXa8SIEVq7dm2x5602wqNHj2revHmFw9bLIz4+Xi1atFCLFi3UpEmTYuGVpMLh8ElJSYXPuVwutW7dWtu2bTvh9Tds2KDMzMzCirBXXnlFQ4cO1cGDB9WrVy89+uijGjFiRJnvz8zM1FVXXaXJkyerdu3auvTSS/X2228XG1qfmJior776StOmTdNpp52m+fPn65JLLtHHH39cGHKNHTtWs2bN0qxZs/TRRx/p3Xff1RdffFFsCD0AAAAA53rpJRNK7d4tPfmk9MUX0r33mtCpZ0/pzz89rw0JMcUHpf2VJSNDKrK5+wl99JH0yy/ma8ECafp0073Tp4+0dKnnddddZ9Y4dqy5/kknmaDsmJHFuv56z/W+/VaaNMn8/XHgwLJH2hzPc89Jf40U9rtvvpHmzLHns72BCiwErJgY8y8byZ5dCENCQnT55Zdr5syZuv7660sMcp82bZqWLVumJk2aFHu+X79+euWVV/Thhx+qWbNmXq0o6tmzp1wul/744w9deOGFkkwF07p169SrV68Tvv/tt99WzZo1C1sGJ0+erFtvvVU33XRT4WumT58udxkDw3788UetWLFCP/30k+rXry/JVKjt37+/8D1vvPGG6tWrp4suukinn366xowZo+HDh2vOnDm65JJLVLduXW3dulUtWrSQZCrlPvnkE/3www9KTk6u/A8HAAAAgF/89JN0xx3SbbdJEyZ4nj/nHOmSS6Tu3aURI6TffzfP9+ghrVgh/fe/0p13Fr/Wp5+av/vVqVO+z+7evWR1UY8eUuvW0ssvS5Mnm2Drgw9MmNOvn3nNuedK69aZoO2vv0pJkpo2lU47rfj1rrhCuuwy6e67pYsvDsxqpkBEBRYCWmSkNGaMSfX37DGPY8b4PryyjBw5UomJibrmmms0a9YsbdmyRUuXLi2sIHrssccUHR1d7D0dOnRQixYt9Oyzz1ZqePvxJCQk6LLLLtPjjz+u77//Xhs3btRjjz2mbdu26Zprrin22r1792rv3r3avXu3Vq1apWeffVZvvfWWxo4dq5o1a0qSGjdurJ9++knr1q3Thg0b9Pzzz+urr75STk5O4XViYmK0fft27dq1q7DSavbs2dq+fbsWLVqkf/3rX8rNzS18z4EDBzRu3DjNmzdP27dv14IFC7Rq1Sp1795dLpdLN954o2bOnKk333xTW7Zs0TfffKPx48erRo0aioiIKPzMTZs2aZ+vBpwBAAAAKHRs58eJPP20KS74z39KnmvQwFQhXXKJqa6STEB10UUmwDrWe+9Jl18uhVWh/CYxUapfX9q82fz5gw9MoGWFV5KpqvrpJ9PyWB7/+Y/p+pk+3fPcpk3S0KGmVTI8XGrY0Px5/35z3mqX/P5783l/bf6upUulwYPNzyY8XGrSxBRmZGV5rv311yZIq1nThHmDBkmrVxdf0yefmOq2yEgzD/qOOzw/4xkzpOHDzXHLlqYFM9BQgYWAFxNjHhs0MI9/ZRx+ERUVpTfffFOvvvqqpk6dqh07digyMlIdO3bUzJkz1bNnz1Lf169fP02aNKlC7YPl9cgjj2jixIl64IEHdOjQIXXs2FGvvvqqWrVqVex1Z5xxhiTTYlizZk2ddNJJmjp1auHzkpScnKxx48bpsssuU0xMjLp166ZHH31UjzzyiHbs2KGEhARdddVVuueee3TxxRfrl19+0dixYzVjxgxNmDBB8fHx6t+/vxo3bqxly5ZJkm677Tbl5ubq8ccf1969e9WgQQNdffXVuvnmmyVJI0aMUI0aNTRz5kw9+eSTqlevngYPHqzRo0cXrmvIkCF66qmntHbtWs2ePdvrP0MAAAAAJvwID49SvXrtFRYWoowMz9+/yuJ2S19+aSqTjvlv+YWKzpmyXHmleX7bNlP1JEmHD5uKqK+/rlrr2/79ZnMvq/nljz+kzp2lt9+WHntMWrtWattWGj/eBGvlkZQkNW8u/fij+XNmpgmoGjQwrYlxcWam1yOPmJ/D5MmmAuy668zrX35Z6thR2rlTOvNME07NmCHVqGG+5+eeM0HYvfdKGzaYwGrECLPGgwel++6T+vc3VWMhIeZ7ufZa8/X44yZMu+8+U9n29dcmIHzgAXPuo4+krl0r//O0jRvwsqVLl7qXLl1a5vmsrCz3ypUr3VlZWX5cVUl5eXnu9PR0d15enq3rwPFV9j455fcsWGRkZLgXLVrkzsjIsHspKAP3KDBwnwID98n5uEeBgfvkbFlZbvdDD7ndcXFut2QeH3rIPH88e/aY199zT/k+5+yzzVdmpttds6bb/dxznnMzZrjdzZq53QUFbneLFm73sGGec8OGmecsjz22xS253evWud25uebryBG3+/ff3e7zznO7w8LcbuuvqR06uN2NG7vdTZu63a+/7nZ/9ZXbfcklbrfL5XZ/8YXnmpLb/fDDZa/9b39zu9u3N8dLlrjdZ5zhdq9fX/w1Awe63UlJJb9fy5dfut1nneV2Hz5c/H1durjdffua43feMWvZvt1z/rff3O777jPvKygw38uFFxa/xjffmPd99pn582uvmT9v3Fj29+RkVGABAAAAAIBCGRlScrI0bpznubQ0z5/HjCm7Estq9cvPr9hnRkWZwehF52C9+66pzKrIpltt2pR8LjFReustqUsX8+ecHFP59PvvZj6WZIa8d+tmvseiM7COx+32rO2kk8xsrYICU9G1dq20cqW0apWUl1f2NS64wHzl5prXr1snLVtmRuTUq2dec9pppi3wlFOkf/zDtD6ec470t7+Z86tXm8q1++4r/llnn212YbQqsAIdM7AAAAAAAECh8PCyd9hLSTHny1KnjlSrlmfeVGkyMkwb3LGuvNKzG+H+/WbXvKuuqtjaZ8+W/vc/8/XHH+ZaGzcWb1usVUtq3NgTXklSaKh03nnSkiXl/6yi7Y6Saftr2FBq1860+82fb4K+MvbAkmQCr3vvlerWlTp1MoPvlywxgZ71vsREMzfr1FOladNMwNaokWkJdLs9M7b+9S9zb4p+HT4s7dhR/u/JyajAAgAAAAAAhdLSzFdZ5w4d8swgLk3fvtJ330nZ2aVvsDV1qnTXXSZkKurCC0249MEHJvhp2VI6+eSKrb1LlxPvCti2rbR1a/EKKslUQUVFle9zVq40VVy33mr+/Pbb5ntKTjbD0v/alF1XXCEtXFj2dZ580gRfU6aYQe6xseZ5q7rK8re/mdlVOTlm7taUKdITT5iqsY4dzWueftpUZh2rvDs4Oh0VWAAAAAAAoFBcnPkq65wVspTlrrtMVdADD5Q8t2uX9MwzJnQpWgElmQHml1xiAqz335euvrriay+P/v3N+r7+2vNcTo40d64ZqF4eDz9swq5hw8yff/zR/Gz+/W9PeJWebp4vKPC8LzS0+HV+/NFUXg0f7vm5bt9u2git902YILVoIR09ajYt69NHeuUVc27zZql9e1P5tXGj2YXQ+mrSxFR3WVVlx352oCHAAgAAAAAAhXJzpdtvL/3cqFHm/PGcdprZ3e/ZZ83spfffl7791rQfnnKKlJVlnivNlVea3fu++853Ada115rw7NprTUve3Llml79t20wwVdS2baat8ddfzYyrd981M6g+/FB64QVPC+Hf/maq0+66y7QOvv22CcN27TItk5a4OGnNGvPzOHjQvG/pUlOJ9f330vTp0llnmbDKel+fPuY6l15qdmP86isTeNWoYeaGhYaaaqzJk839+fprM0usb19p8WJPFZsVSn70kZmbFWhoIQQAAAAAAIVCQkwQ4nZLEyeaYCYuzjw3dmzpbYHHuv9+ExJNnCiNHi0dOCA1ayYNGGCGjTdrVvr7zj/ffFbz5qayyBfCw818rfvuM+s8csSs9ZtvSlaFTZ9uviTzc6lXzwR033xjgiXLsGGmAurVV6WXXzbVTxddZOZS3XSTGebeoYOZcbVokQnBXnvN/Dz37TNh2Lhx5vseMsR81n/+Y372XbtKn35qzl99tRnU3rOnCbKSkszn33CDGdienGyqs2rWlE4/3Qyvb9nSvKZ3bzPna+xYad486fPPffPz9RWX2328cWJAxS1btkyS1MXa4uEY2dnZ2rhxo1q2bKnI8vybz0fy8/OVnZ2tyMhIhQZ6LWU1Vtn75JTfs2CRmZmpVatWqUOHDoqOjrZ7OSgF9ygwcJ8CA/fJ+bhHgYH75FxTppi2tQkTpN693Tp4sEB16oQoN9dV5u6DdjvR30MR+GghBAAAAAAAkszcpQkTTIvZqlVSXl6W9u1brby8LMeGVwgOBFgAAAAAAECSmQe1erXZDXDECPNcdna2vYsCRIAFVFleXp5ef/11DR48WN27d9dpp52mESNG6Ndffy18TZ8+fZSUlKTXXnut1Gs89NBDSkpK0osvvlj4XFJSkj766CNJ0rZt25SUlFTsq2PHjurVq5dGjx6tHTt2FLve9OnTde6556pr164aPHhwsbX89ttvJa5V9CsjI6PwNdu2bStcf9G1AQAAAKienn/ePFozlQCnYIg7UAVHjx7V8OHDtXPnTo0aNUrdu3dXdna2PvzwQw0fPlzJyckaOHCgJCk8PFxffvmlhg8fXuwaeXl5+uqrr+RyuU74eS+++KK6d+8uSSooKNDWrVt1//336+abb9bs2bPlcrn08ssva+rUqXriiSfUsWNHvfHGG7rllls0e/ZsNSsyKfG///2vGjduXOIzoqOj1b17d/3444+qW7duVX48AAAAAALIsmVmOLk1xB1wEgIsBL6MDLONhLU1Rm6u/NWc/cILLyg1NVWfffZZsTDo/vvvV3p6uh5//HH1+Wtril69emnBggXatWuXGjVqVPjaX3/9VdHR0YqKijrh58XGxqpBgwaFf46Pj9dtt92mu+++W6mpqWrevLmmTp2qu+++W/379y9cy6JFi/T7778XC7Dq1q1b7FpFRURElHkOAAAAQPU0YYJ5vPRSKTHRzpUAJdFCiMCWnW32CY2P93wlJ5vnfSw3N1cffvihBg8eXGol0+jRozV16tTCHfC6du2qhIQEzZ07t9jr5syZo379+pWrAqs01s584eHh+v3335WVlaWLLrqo2PnZs2frkksuKfc1j20hPNbixYt17bXXqmvXrjrnnHP06KOPKj09vVLrBwAAAGC/PXukt94yx3feae9agNIQYME53G5TTVXer8OHpfHjpXHjTPWVZB7HjTPPHz5c/mu53RVe7tatW5WWlqYePXqUej4+Pl5du3YtDJgkqV+/fsUCrJycHH3zzTfFAqfyKigo0KpVqzRp0iS1b99eLVu21MaNGxUbG6vU1FRdffXV6tWrl4YMGaLFixdX+PplWb16tYYPH64zzzxTs2fP1jPPPKMVK1ZoxIgRclfi5wgAAADAfpMmSUePSqecIv3973avBiiJFkI4g9stnXGG9PPP5Xt9/frSpk1SSkrp51NSpDFjTN3rvn2lviRUUmGj4emnSwsWSBWogjp06JAk09ZXXv369dP06dO1e/duxcfH66efflLdunXVsWPHcr3/xhtvLAzEcnJy5Ha71bNnTz322GMKCQlRenq6srOz9dBDD+muu+5SQkKC3nvvPQ0bNkyzZs1S69atC681YMCAElVfU6dOVc+ePY+7hunTp+v000/XyJEjJUmJiYl69tlndd5552nhwoU69dRTy/3zAAAAAGC/7Gzp5ZfN8Z13VuivRYDfEGDBOSryb8lGjUyNq1V5day0NGnvXvO6MgKsqrIGnKeVtYZSdO7cWc2aNdOXX36poUOHas6cORWqvnr88cfVrVs3SVJYWJjq1atX2KJoPZedna377rtPZ599tiSpU6dOWrJkid588009/PDDha995ZVXFB8fX+z6x/65NCtXrtTmzZsLh8kXtX79egIsAAAAIMC8847561XTptLll9u9GqB0BFhwBpfLVEBlZpb/PeHhZmh7aQFSXJyUkCD9+muZb8/Pz1d2drYiIyMVWqtWhf8zQ7NmzVS/fn0tXry4cGB6UevXr9cTTzyhsWPHFnveaiO88sorNW/ePP33v/8t92fGx8erRYsWZZ63hsMnJSUVPudyudS6desS86wSEhLUtGnTcn+2paCgQAMHDiyswCqKXQsBAACAwOJ2S88/b45vu838NQtwImZgwTlcLrN7YHm/cnPL3tt11CjPboTl+apEjWxISIguv/xyffTRR9q5c2eJ89OmTdOyZcvUpEmTYs/369dPixcv1ocffqhmzZoVa+urqp49e8rlcumPP/4ofM7tdmvdunXHDb4qom3btoXXs77y8vI0fvz4Un8OAAAAAJzr22+lZcuk6GjpppvsXg1QNiqwELhiYiSruiklxVRixcWZ8GrsWKlIa52vjBw5UgsWLNA111yjO+64Qz169FBaWpreeecdzZo1S88//7yio6OLvadDhw5q0aKFnn32Wd18881eXU9CQoIuu+wyPf7444qKilLz5s01c+ZMbdu2Tddcc41XPmPEiBG69tpr9eijj+q6667T4cOH9eijjyo7O1uJ7LULAAAABBSr+uqf/5Tq1LF1KcBxEWAhsEVGmmHt998vHTokxcaayis/hFeSFBUVpTfffFOvvvqqpk6dqh07digyMlIdO3bUzJkzyxyI3q9fP02aNKnU1sOqeuSRRzRx4kQ98MADOnTokDp27KhXX31VrVq18sr1TzrpJE2bNk0vvPCCLr30UkVHR6tXr1665557FBER4ZXPAAAAAOB7qanS55+b4zvusHctwIm43Ox7Dy9btmyZJKlLly6lns/OztbGjRvVsmXLYgPI/a3YDKy/dvaD81T2Pjnl9yxYZGZmatWqVerQoUOJqkM4A/coMHCfAgP3yfm4R4GB+2S/f/1LmjRJGjhQmj279NcEyn060d9DEfiYgQUAAAAAQJA5cEB6/XVzfOed9q4FKA8CLAAAAAAAgswrr5hN4Lt1k845x+7VACdGgAUAAAAAQBDJzZUmTjTHd95ZqU3ZAb8jwAIAAAAAIIj897/S9u1SfLx01VV2rwYoHwIsAAAAAACChNstPf+8Ob71VqlGDXvXA5QXARZswwaY8CV+vwAAAICSfvpJWrTIBFcjR9q9GqD8CLDgd2FhYZKkvLw8m1eC6sz6/bJ+3wAAAAB4qq+GDJEaNLB3LUBFEGDB70JDQxUaGqrDhw/bvRRUY4cPHy78XQMAAAAgbdggffyxOR492talABVGaQL8zuVyqWHDhtq5c6dq1KihmJgYuWzY9iI/P19Hjx6VJEIOB6vofXK73crIyNDhw4fVuHFjW363AAAAACdKSTEzsC64QOrUye7VABVDgAVbxMbGKisrS/v27dPevXttWUNBQYHy8vIUFhamkBCKEZ2qMvfJ5XIpLi5OsbGxPl4dAAAAEBgOHZKmTzfHd95p71qAyiDAgi1cLpcaN26shg0bKjc315Y1ZGVlacOGDWrevLmioqJsWQNOrDL3KTw8nKo6AAAAoIjp06X0dKlDB6lvX7tXA1QcARZsZeeMooKCAklSjRo1FBkZacsacGLcJwAAAKBq8vJM+6BkZl8xZQOBiL4pAAAAAACqsVmzpM2bpXr1zO6DQCAiwAIAAAAAoBp7/nnzOHKkxPQUBCoCLAAAAAAAqqmFC6Wff5bCw6Vbb7V7NUDlEWABAAAAAFBNWdVXV10lNW5s71qAqiDAAgAAAACgGtq6Vfrvf83xnXfauxagqgiwAAAAAACohiZOlPLzpbPPlrp3t3s1QNUQYAEAAAAAUM2kp0uvvGKOqb5CdUCABQAAAABANfP661JamtS6tTRggN2rAaqOAAsAAAAAgGqkoEB64QVzfMcdUmiovesBvIEACwAAAABOICNDysmR9uwxjxkZdq8IKNvnn0tr10qxsdLw4XavBvAOAiwAAAAAOI7sbCk5WYqP93wlJ5vnASd6/nnzeOONUs2a9q4F8BYCrAA3ZcoUDRkypNhzDzzwgJKSkop99enT57jX+fzzzzVgwAB169ZN/fv316xZs3y4agAAACAwZGRI48dL48aZeUKSeRw3zjxPJRac5o8/pO++M22Dt99u92oA7wmzewGovLfeeksTJkxQz549iz2fmpqqkSNH6rrrrit8LvQ4Tc+//vqrxowZowcffFCnn366fvjhB40dO1Z16tTR2Wef7bP1AwAAAE4XHi6lpJR+LiVFuv9+/64HOJEPPpDq15f69JGaN7d7NYD3UIEVgHbv3q2RI0fqmWeeUWJiYrFzbrdb69atU+fOndWgQYPCr7p165Z5vXnz5ikpKUlXXXWVmjVrpmuvvVbt27fXggULfPydAAAAAM6WluapvCrt3KFDflwMcBwZGdLRo9L110ubNnnaCIHqggArAK1YsULh4eGaPXu2unXrVuzcli1blJmZqVatWpX7evXq1dPatWv166+/yu1267ffftP69evVtWtXby8dAAAACChxcearrHOxsX5cDFAGa05bo0ZSq1ZS06bSlCnMaUP1QgthAOrTp0+ZM63WrFkjSZo5c6Z++OEHhYSE6KyzztKdd96pWrVqlfqeIUOGaOnSpRo2bJhCQ0OVn5+vkSNH6uKLL/bZ9wAAAAAEgtxcadQoM/PqWKNGmfMREf5fF2DJyDDhVdHfUWtOmySNGSPFxNiyNMCrCLCqmTVr1igkJEQNGzbU5MmTtWXLFiUnJ2vt2rV6/fXXFRJSsuhu586dOnjwoB566CH16NFDv/76q55//nk1a9ZMl19+eaXW4Xa7lZmZWdVvx6eysrKKPcKZuE+BgfvkfNyjwMB9CgzcJ+fz5j0KCXHp3nsjVVAgTZzoUlqaqbwaNcqte++VpGxlZrqr/DnBiH+WvCM8PEopKa5Sz5k5bW5lZlb+Zxwo98ntdsvlKv3ngOrB5Xa7+bdtALv33nu1fft2zZw5U5JUUFCgQ4cOqU6dOoWv+fPPP3XFFVfo/fffL9FyKEn9+vXTgAEDdOuttxY+N2HCBL3zzjv65ZdfSg29jmfZsmXKycmp5HcEAAAAOEtOTrR27+6g88+X9u6V4uPdSks7rAMHtimbHi3YKDIyUvXqtVfjxmVv2rVrV7727VsdFL+rERER6tKli93LgI9QgVXNhISEFAuvJKlt27aSpF27dpUIsA4cOKANGzaU+If8pJNO0qRJk5SWlnbcAfBlCQ8PV5s2bSr8Pn/KysrSpk2blJiYqKioKLuXgzJwnwID98n5uEeBgfsUGLhPzufte7RkiUuXXmp2dmvUSDr//Dw9/ni4YmNbemG1wYt/lrwjLCxEcXGlbzYQFyfVqROiWrUq/7saKPdp3bp1di8BPkaAVc2MGTNGe/bs0YwZMwqfW7ZsmSSVGijFxsYqKipKqampOuusswqfT01NVe3atSsVXkmSy+VSdHR0pd7rb1FRUQGz1mDGfQoM3Cfn4x4FBu5TYOA+OZ+37tHu3eZx3z7zFRMTrujo8CpfFwb/LFVNRsaJ5rS5FBNT9Z+v0+8T7YPVH7sQVjN9+/bVL7/8ookTJ2rLli36/vvvdd9992nAgAFq3bq1JOnIkSM6cOCAJCk0NFRDhw7VpEmTNGvWLG3dulWzZs3SlClTNHLkSDu/FQAAAMARNm0yj927m8c//5Ty8mxbDlBMTIx0zz3SAw94dsyMi5MeekgaO5YB7qg+qMCqZs4991xNmDBBr7zyiqZOnapatWpp4MCBGj16dOFrnnjiCS1cuFDffvutJOmOO+5QnTp1NGXKFO3cuVNNmzbVv//9b1111VU2fRcAAACAc2zebB7PO09at046ckRatUpi1A6cYt486eSTpe3bTUVWbKzZITMy0u6VAd5DgBXgnnzyyRLP9evXT/369Sv3e0JDQzV8+HANHz7c6+sDAAAAAp1VgdWypanC+uEHafFiAiw4xw8/SM88I40ZIz31lHkuIsLeNQHeRgshAAAAAByHVYGVmCj16GGOf//dtuUAJSxZYh7/2r8LqJYIsAAAAADgOKwKrBYtTJuWZCqwACdwu6U//jDHJ51k50oA36KFEAAAAADKkJYmHTpkjlu08Dz/xx9Sfr4UGmrHqgCPbduk/fvN72LnznavBvAdKrAAAAAAoAxW+2D9+mY3t6QkKTraDMpes8betQGSp32wQweGtqN6I8ACAAAAgDJY7YOJieYxNNTTpkUbIZzAah/s3t3WZQA+R4AFAAAAAGWwKrCKtg9ag9wJsOAEVgUWARaqOwIsAAAAACjDsRVYEjsRwlkY4I5gQYAFAAAAAGWwKrCKBljWToRLlkgFBX5fElDo4EFPyEqAheqOAAsAAAAAymCFA0VbCDt0kGrUkA4fljZssGVZgCRP9VWLFlKdOrYuBfA5AiwAAAAAKENpLYTh4VLXruaYNkLYiQHuCCYEWAAAAABQiiNHpAMHzHHRCizJ00bIIHfYiQHuCCYEWAAAAABQCmv+VZ06Uu3axc+xEyGcgAHuCCYEWAAAAABQitIGuFuK7kTodvttSUCh7Gxp5UpzTAUWggEBFgAAAACUorQB7pbOnc0srIMHPUEX4E/Ll0v5+VLdulLTpnavBvA9AiwAAAAAKEVpA9wtNWqYEEuq/m2EGRlSTo60Z495zMiwe0WQig9wd7lsXQrgFwRYAAAAAFAKq7KqtAosqXgbYXWVnS0lJ0vx8Z6v5GTzPOzFAHcEGwIsAAAAACjF8SqwpOq/E2FGhjR+vDRunJSWZp5LSzN/Hj+eSiy7McAdwYYACwAAAABKcbwh7lL1H+QeHi6lpJR+LiXFnIc98vOlP/80x1RgIVgQYAEAAADAMTIzzcwnqewWwq5dpdBQae9eaft2/63NX9LSPJVXpZ07dMiPi0Ex69aZCrioKCkpye7VAP5BgAUAAAAAx7Cqr2rXluLiSn9NVJTUsaM5ro5thHFxZX/vcXFSbKwfF4NirPbBLl1MiAoEAwIsAAAAADhG0QHux9vhzWojrI4BVm6uNGpU6edGjTLnYQ8GuCMYEWABAAAAwDFONMDdUp13IoyJkcaOlR580FOJFRcnPfSQeT4mxs7VBTcGuCMYhdm9AAAAAABwmqIVWMdT3XcijIyUzjhDuuceM+urYUMzsD4y0u6VBS+3mwosBCcCLAAAAAA4RnkrsLp1My2GO3ZIu3ZJjRr5emX+dfSo1K+fVLeu+d4yM80Acdhn506zwUBIiJmBBQQLWggBAAAA4BhWBdaJAqyaNT27wFXHKqx166SCAik7W1q9WtqwQdq61e5VBTerfTApSYqOtnUpgF8RYAEAAADAMawKrBO1EErVu41w1Srz2LGj1KGDOV62zL71gPZBBC8CLAAAAAAoIjvbtGlJJ67Akqr3ToSrV5vH9u097WpLl9q3HjDAHcGLGVgAAAAAUITVIhcdLdWrd+LXV+edCIsGWC6XOaYCy15UYCFYEWABAAAAQBFFB7hboc3xWEHCli3Svn1S/fq+Wpn/WQFWhw5SRIQ5dmoFVkaGFB4upaVJcXFSbq4UE2P3qrzr0CFp/XpzTAUWgg0thAAAAABQRHkHuFtiY6U2bcyxVR1THRQUlN5CmJpqdid0kuxsKTlZio/3fCUnm+erEys8bNq0egWlQHkQYAEAAABAERUZ4G6pjm2E27ebqqawMKl1axOaxMVJeXmeYMsJMjKk8eOlceNM9ZVkHseNM89nZNi5Ou+ifRDBjAALAAAAAIoo2kJYXtVxJ0IrpGrd2rTmuVyeKiwnzcEKD5dSUko/l5JizlcXDHBHMCPAAgAAAIAirBbCylRgVacAa9Uq89ihg+e5rl3No5PmYKWleSqvSjt36JAfF+NjVGAhmBFgAQAAAEARlanAsgKF9evLDlMCTdH5VxYnVmDFxZmvss7FxvpxMT6UkyOtWGGOCbAQjAiwAAAAAOAvOTnSjh3muCIVWPXqeQKv6jLIvbQAy4kVWLm50qhRpZ8bNcqcrw5WrjTfS1xcxX43geqCAAsAAAAA/rJtm9l9LzLS7GRXEdWtjbC0FsLOnc3jjh3S/v3+X1NpYmKksWOlBx/0VGLFxUkPPWSej4mxc3XeYwWjJ51k5pEBwYYACwAAAAD+UnQHwoqGBNVpJ8K0NGnXLnOclOR5vlYtqWVLc+ykNsLISOmss0wAuXGjebz7bvN8dcEAdwQ7AiwAAAAA+EtlBrhbqtNOhKmp5rFx45IzpJw4BysjQ+rb17RxXnaZedywwe5VeRcD3BHsCLAAAAAA4C+VGeBusYKFNWukI0e8tSJ7lNY+aLHmYDkpwPrzT9P6GRYmRUVJ+/Z5Bp5XBwUFngosAiwEKwIsAAAAAPhLVSqw4uOlJk0kt9sTNgSq0ga4W6wKLCcNcl+0yDz27Cl16mSOV660bz3etnGjCUVr1Cj9ngDBgAALAAAAAP5SlQosqfq0ER4vwLIqsJYvN5VBTmDNHTv5ZKljR3NcnSqwrPbBzp2l8HB71wLYhQALAAAAAP5S1QCruuxEeLwAq00bUwmUkWEqg5ygtAqs6hRgMcAdIMACAAAAAElSXp7ZvU6qXAuhVD0CrJwcad06c1zaDKywME9I5IQ5WBkZnsDt5JM9a1u/XsrOtm9d3sQAd4AACwAAAAAkSdu3S/n5pkWrcePKXcNqIVy5UsrM9N7a/Gn9evNziIkxM71K46Q5WH/8YVoZExLMfWvUSIqLM89ZuykGOga4AwRYAAAAACDJM8C9eXMppJJ/U2rc2AxzLyhwRrhTGUXbB12u0l/jpJ0IrfZBKzx0uarXIPc9e6QdO8z3Zf3cgWBEgAUAAAAAqvr8K8mEDIHeRrhqlXksrX3Q4qQKLGuAe8+enueq0yB3q32wbVupZk171wLYiQALAAAAAOSpwKrs/CuLVQlkBSuB5ngD3C1WJdC6dfa3Sh5bgSVVr0HutA8CBgEWAAAAAMg7FVhS4FdglSfAio+XGjQwrZJ2tumlpxcf4G6pTi2EVgUWOxAi2BFgAQAAAIC8H2AtXy4dPVq1a/mb2+0JhI7XQig5Yw7WkiVmzU2amOHtFquFcN26wN+JkAoswCDAAgAAAAB5r4WweXOpXj0pL88ZQ84rYscO6cgRKTRUat36+K91whwsq02zaPWVZIbpWzsRrlnj92V5TXq6Z/1UYCHYEWABAAAACHoFBdKWLea4qhVYgTzI3aq+atVKqlHj+K+1Aiw7Qzpr/lXRAe6SuQfVYZD70qWmwsza3RIIZgRYAAAAAILezp1Sbq6pPEpIqPr1Aj3AOlH7oORpIXRiBZZUPeZg0T4IeBBgAQAAAAh61vyrZs2ksLCqXy9QdyJctco8Hm+Au6VjR1PptHevtHu3b9dVmiNHpNRUc1xagFUdKrAY4A54EGABAAAACHreGuBusSqwli41lV2Bojw7EFqio6W2bc2xHVVY1gD3pk1Lb6+zKrACOcCiAgvwIMACAAAAEPS8NcDd0qqVFBsr5eQEVgtbRQIsyd45WFZ127HzryxWgLVuXeDtBimZ4NP6uVKBBRBgAQAAAIDXK7CKDnIPlDbCw4el7dvNcXkDLDvnYFkD3EtrH5TM4PPYWDOg32o1DCSrV5vgrVYtE4gCwY4ACwAAAEDQ83YFlhR4g9ytkCc+XqpTp3zvcUIFVlkBlssV2IPcrfbBk06SQvibO0CABQAAAADersCSAi/Aqmj7oOSpwFqxQsrL8/6aynL48PEHuFsCeZA7A9yB4giwAAAAAAS1ggJPBZY3AywrWPnjD/+GO5Vl7UDYoUP539OypRQTY1rd1q3zzbpKY4U7zZpJDRuW/bpAHuTOAHegOAIsAAAAAEFtzx4TwISEmB3tvKVtW6lmTSkrKzBmMFWmAiskROrc2Rz7cw7WiQa4WwK1hdDtpgILOBYBFgAAAICgZrUPNmkihYd777ohIZ7wIRDaCCsTYEn2zME60QB3i9VCGGg7EW7eLKWlmd9HK4QDgh0BFgAAAICg5osB7pZA2YkwN9fTAliRFkLJnp0Iy1uBlZBgdiLMz5fWrPH9urzFah/s1EmKiLB1KYBjEGABAAAACGq+GOBusSqEnF6BtWGDCbGioyveRunvCqxDhzxh1IkqsFyuwBzkTvsgUBIBFgAAAICg5o8KrCVLzLB4p7LaB5OSTOtjRVgB1saN0pEj3l1Xaaxwp0ULqX79E78+EOdgMcAdKIkACwAAAEBQ82UFVvv2UlSUlJ4urV3r/et7ixVgVbR9UJLq1TOtepK0fLn31lSW8s6/slCBBVQPBFgAAAAAgpovA6ywMKlbN3Ps5DbCVavMY0UHuFv8OQervPOvLFYFVqAEWPv3S1u3mmMCLMCDAAsAAABA0HK7fdtCKHnaCJ0cYFV2B0KLP+dgVbQCywqwAmUnQqt9sHVrqXZtW5cCOAoBFgAAAICgtW+flJlpjps3981nOH0nQre76gGWvyqwDh3y7JZY3gArIcEEQYGyEyHtg0DpCLAAAAAABC2r+qpxY6lGDd98RtGdCN1u33xGVezaZYKhkBCpbdvKXaNoBZYvv0erii0x0czeKg+XK7AGuTPAHSgdARYAAACAoOXL+VeWjh2liAgTEm3c6LvPqSyr+qplSykysnLXaN/ezPtKS5O2bfPa0kqoaPugJZAGuVOBBZSOAAsAAABA0PJHgBUR4alQcmIbYVXbByVTvZaUZI59OQerogPcLYFSgZWZ6bkfVGABxRFgAQAAAAhavh7gbinaRug0VmDSoUPVruOPQe6VrcAKlJ0Ily+XCgqkhg1NWysADwIsAAAAAEHLHxVYkrN3Ily1yjxWpQJL8v0g94MHpfXrzXFlWwjXrnX2ToRF2wddLluXAjgOARYAAACAoOWvCqyiOxE6bZC7N1oIJd9XYFnhX8uWUt26FXtvkyaenQjXrvX+2ryFAe5A2QiwAAAAAAQlt9t/FVhdupgh5/v3S1u3+vazKiI93bMeb1VgrVol5eRU7Vqlqez8K8lUMwXCIHerAosACyiJAAsAAABAUDp4UDpyxBw3b+7bz4qM9MxhclIbYWqqeWzQQKpXr2rXatZMio2V8vI81/Wmys6/sjh9kHt+vqf9kh0IgZIIsAAAAAAEJat9sGFDKTra959XtI3QKbzVPiiZKierjdAXc7Csn1tVAyynVmCtWSNlZUkxMVKbNnavBnAeAiwAAAAAQclf7YMWJ+5E6K0dCC2+moN18KC0YYM5rmyA5fQWQqt9sGtXKTTU3rUATkSABQAAACAo+WuAu8WJOxF6awdCi692IrSqr1q1kurUqdw1rAqstWt9M6OrqhjgDhwfARYAAACAoOTvCqxu3aSQEGnXLmnHDv985ol4s4VQ8l0FVlUGuFuK7kS4Zo131uVNDHAHjo8ACwAAAEBQsgIsf1VgRUd7WvWcUIWVl2eqkSTvBVidO5vHbdtM25+3VHWAu1R8J0KnDXJ3uz0BFgPcgdIRYAEAAAAISlYLob8qsCRntRFu2mRa6SIjvRfixcZ6ruXNKixvVGBJzp2DtX27tH+/mX1lhYAAiiPAAgAAABCU/N1CKDlrJ0Jr/lVSkmlt9BZvz8Hav1/auNEcWz+/yrLmYDmtAsuqvurQwQSKAEoiwAIAAAAQdA4dktLSzLG/WgglZ+1E6O35VxZvz8GyflZt2khxcVW7lhVgOa0CiwHuwIkRYAEAAAAIOlb7YL16Us2a/vtca77Rtm3Snj3++9zSWAGWNZfLW7xdgeWN+VcWq4XQaTsRMsAdODECLAAAAABBxwqw/Fl9JUm1aknt2plju6uwrBZCX1VgLV8uFRRU/XpWu6U3AqymTc09KDrA3gkY4A6cGAEWAAAAgKBjx/wrixPaCN1u37UQtmsnRURI6emen3NVeGuAu1R8J0KntBGmpXl+TgRYQNkIsAAAAAAEHTsDLCfsRLh3r3TwoAl0rIowbwkL84REVZ2DtX+/515VdYC7xWmD3K35Vy1aSHXq2LoUwNEIsAAAAAAEHbtaCCVn7ERotQ8mJkpRUd6/vrfmYFk/o7ZtpdjYql3L4rRB7gxwB8qHAAsAAABA0HFCBdamTdKBA/7/fMl37YMWb+1E6M0B7hantRAywB0oHwIsAAAAAEHHzgqsuDipVStzbIUX/uarHQgt3q7A8sb8K4tVgeWUnQgZ4A6UDwEWAAAAgKCSni7t22eO7QiwJPvbCP1VgbV2rZSVVfnr+KICy0k7EWZne9o5qcACjo8ACwAAAEBQsaqvYmNNNZQd7N6J0ApNfBVgNWok1a8vFRRUflj6vn3Sli3m2FsD3KXiOxHaPch9xQoTpNWta4I1AGUjwAIAAAAQVKwAy475VxYrkNm40f+fnZnp+Rn4KsByuao+B8uqTmvXTqpd2zvrsjhlDlbRAe4ul61LARyPAAsAAABAULFzgLvllFOkWbOkb7+Vdu82s5gyMvzz2WvWmMd69aQGDXz3OVaAVdk5WL5oH7RYc7DsrsBigDtQfgRYAAAAAIKKnQPcLVFRJqBp2tS028XHS8nJZiaSr/m6fdBiDXKvagWWNwe4W6wAyykVWAxwB04szO4FAAAAAIA/2V2BlZFhwqrHH/c8l5YmjRtnjseMkWJifPf5vh7gbnFyBZbVQrhmjal+i4jw/mecSEGB9Oef5pgKLODEqMACAAAAEFSsAMuuCqzwcCklpfRzKSnmvC9ZAVaHDr79nE6dzFynPXtMm2RF7Nkjbd1q3u+LcKdZM6lmTTNAfd0671+/PNatMztiRkaaOV8Ajo8ACwAAAEBQsXuIe1qa+Srr3KFDvv18f7UQxsRIrVub44q2EfpygLtUfCdCu9oIrfbBrl2lMHqjgBMiwAIAAAAQNLKyPNVAdgVYcXHmq6xzsbG+++z8fM8Qd18HWFLl52D5cv6Vxe5B7gxwByqGAAsAAABA0NiyxTzWrCnVqWPPGnJzpVGjSj83apQ57yubN0tHj0o1avgnwKvsHCxfzr+y2D3IPS1Nql+fAe5AeVGoCAAAACBoFB3g7nLZs4aYGGnsWHOckmKCjLg4E16NHWtmIvmK1T7Yrp0UGuq7z7E4uQLLrhbCjAwz5+yee6RnnvF9yyhQXVCBBQAAACBoWPOv7BrgbomMNLsN7t5tqsK2bZMGDvRteCX5bwdCi1WBtWKFaV8sj927zc/DVwPcLVYF1po1vq16Kyo72+xAGR8vtWwpNW0qTZlingdwfARYAAAAAIJG0Qosu8XESBERZre9xETp/PPNjC5f8tcOhJZWraToaBPQlHe3P6v6qn170+rpK0V3Ily71nefY8nIkMaPl8aN8wzxT0szfx4/3pwHUDYCLAAAAABBwwqw7K7AKuq000yYlZYmffSRbz/L3xVYoaGeSqfythFaAZYv519JxXci9Mcg9/Bw0zJampQUcx5A2QiwAAAAAAQNq4XQCRVYlpAQafhwczx9um8/y5qB5a8AS/LMwSrvIHd/DHC3+HMOVlqap/KqtHPMwgKOjwALAAAAQNBwUgthUcOHm4qg776T1q/3zWfs2yft32+O27XzzWeUxpqDVdEKLF8OcLdY1WH+qMCKizNfZZ2LjfX9GoBARoAFAAAAICgcPSrt3GmOndRCKEnNm5sZWJL02mu++QyrfbBFC9Oy6C8VqcDatUvavt2EeSed5NNlSfIEWP6owMrNNTtNlmbUKP8NkgcCFQEWAAAAgKCwdavkdktRUVKDBnavpqQbbjCPr71mBot7mx3tg5KnAmvDBik9/fivtaqvOnTw7QB3i9VC6I+dCGNipHvvlR54wFOJFRcnPfSQNHasf0NFIBARYAEAAAAICkUHuLtcti6lVBdfLNWrJ+3YIX35pfev7+8B7pb69aXGjc3x8uXHf60/519JpvKtZk0TXpV3l8Sq+Oor871t2ybt2SPt3i2NGSNFRvr+s4FAR4AFAAAAICg4cYB7UTVqSEOGmGNfDHO3AqwOHbx/7RMp7xwsf86/kkyQaf08/NFG+Oyz0qWXSlOmmCrAiAgqr4DyIsACAAAAEBScOsC9qOuvN4+ffmqqc7zJrhZCqfxzsKwAy18VWJL/BrmnpkoLFphdJ6+80refBVRHBFgAAAAAgoJVgeW0Ae5Fde4snXqqmYH1xhveu25WlifAsyPAKk8F1s6dpn0yJMQ/A9wt/hrkPm2aebzoIqlJE99+FlAdEWABAAAACAqBUIEleaqwpk83Q+e9Ye1ac606daSGDb1zzYooWoFV1vdUdIC7P9vqrEHuvqzAysmRXn/dHFvD+gFUDAEWAAAAgKBQdIi7k111lQlwUlOln37yzjWLDnC3Y4B9hw5SaKh08KCpsiqNvwe4W6wKrNRU3+1E+Mkn0t69UkKC1L+/bz4DqO4IsAAAAABUe7m50vbt5tjpFVi1aklXXGGOvTXM3c75V5IZUN+unTkuaw6Wvwe4W5o1M4GhL3cinDrVPA4fLoWF+eYzgOqOAAsAAABAtbdtm1RQYIKU+Hi7V3NiVhvh++9Lhw9X/Xp27kBosdoIy5qDZVcFVkiIb9sIN26Uvv7aHFv3FUDFEWAFuClTpmiItdfuXx544AElJSUV++rTp89xr7N06VJde+216tq1q84++2ylpKSooKDAl0sHAAAA/MYa4N68uQksnO7vfzfVUpmZ0nvvVf16RVsI7WINci+tAmvHDmnXLv8PcLdYAZYvBrm/+qp5PP98qWVL718fCBYB8K9ulOWtt97ShAkTSjyfmpqqkSNH6scffyz8+uCDD8q8zsaNGzV06FC1bt1as2fP1n333acZM2ZourfqlQEAAACbBcoAd4vL5anWsXavq6yCAjPfSbI3wDpeBZbVPtixoxQd7b81Waw5WN6uwMrL8wRYDG8Hqobu2wC0e/duPfzww/rtt9+UeMz/Arvdbq1bt0433XSTGjRoUK7rTZkyRW3atNGjjz4ql8ulxMREpaamavHixT5YPQAAAOB/gTLAvaihQ6WxY6WFC6Xly6XOnSt3nS1bpKwsKSLC3gogqwJr1aqSw9Kt9kF/z7+yWAGWtyuwvvjCVJfVry8NGuTdawPBhgqsALRixQqFh4dr9uzZ6tatW7FzW7ZsUWZmplq1alXu6/34448aMGCAXEW2Ixk1apQmTZrktTUDAAAAdrJaCAOlAkuSGjaUBg40x1VpjrDaB9u2tXeAeIsWZkB9bq6nIsxiVWD5e/6VxWoh9PZOhNbw9mHDzPw1AJVHgBWA+vTpoxdffFHNmjUrcW7NmjWSpJkzZ6pPnz4677zzNG7cOB05cqTUa6Wnp2vv3r2qVauW7rvvPp1xxhnq37+/XnnlFeXn5/v0+wAAAAD8JRArsCRP29kbb0hHj1buGnbvQGhxuUqfg+V221+B1by5ZyfC9eu9c83t26XPPzfHtA8CVUcLYTWzZs0ahYSEqGHDhpo8ebK2bNmi5ORkrV27Vq+//rpCjplYmZ6eLkl66qmnNHToUE2dOlWrVq3SE088oczMTI0ePbpS63C73crMzKzqt+NTWVlZxR7hTNynwMB9cj7uUWDgPgUG7pPzlXaPNm2KlBSiRo2ylZkZOJsVnXmmlJAQqR07QvT++0d12WUV/4/My5eHSwpX69a5ysz0YnlRJXTsGK6ffw7X4sW56tvX3J+NG49q9+5ohYa61bZtluz6a0RSUg0tXhyqxYuPqnnzqv/H/FdeCVNBQYROPz1fzZsfte37qqpA+Xee2+0u1lWE6ocAq5q55ZZbdM0116hOnTqSpHbt2qlBgwa64oortGzZshIth2F/1RD//e9/12233SZJ6tChgw4cOKCXXnpJd9xxR6X+JZCbm6tV1n/qcbhN1n+Og6NxnwID98n5uEeBgfsUGLhPzmfdo/x8aevWHpKknJw1WrXK3hCnoi68MEGvvtpYL7+crY4d11X4/X/80U5SuGrV2qZVqw54f4EVUK9eA0nN9euvmYX358sv90uqo5Yts7Rpk31/h0hIaKHFi+trwYJ9SkraVaVrFRRI06aZoWXnn7/F9p+7NwTCv/MiIiLsXgJ8iACrmgkJCSkMryxt27aVJO3atatEgFWnTh3VqFFD7dq1K/GezMxMHThwQPXq1avwOsLDw9WmTZsKv8+fsrKytGnTJiUmJioqKsru5aAM3KfAwH1yPu5RYOA+BQbuk/Mde4+2bXMpP9+lsDC3zjyzjUJD7V5hxfzf/7n06qvSb7/VVkxMRzVv7q7Q+7duNb+nvXs3UocO8b5YYrmdd16InnpK2ry5lhITE7Vp0ybt3JkgSerVK0IdOnSwbW2nnRamzz6T9u2LV4cOdU78huOYNy9EO3bUUGysW7feGq/oaHt/7lURKP/OW7eu4uEuAgsBVjUzZswY7dmzRzNmzCh8btlf+9SWFiiFhoaqR48e+vPPP4s9n5qaqtq1aysuLq5S63C5XIq2Y//bSoiKigqYtQYz7lNg4D45H/coMHCfAgP3yfmse7R7t/lz8+Yu1aoVePesUyepTx/p229devfdKD3ySPnfe+CAtHevOe7WLUp2/8paM662bQtRdrYJQ5YtM9PNTz01TNHR9v0V9aSTzGNqatXXMXOmebzuOpfq1w+837nSOP3febQPVn8Mca9m+vbtq19++UUTJ07Uli1b9P333+u+++7TgAED1Lp1a0nSkSNHdOCAp4T1lltu0YIFC/Tiiy9qy5YtmjNnjl555RUNGzZMoYH2n6cAAACAYwTqAPeirr/ePL72mmmJLC9rB8JmzaSaNb2/roqKizMD0yVp5coQud3SkiXmr6V2DXC3dOpkHlNTpby8yl9n715p1ixzfOONVV4WgL8QYFUz5557riZMmKB58+Zp4MCBuv/++3XBBRfoP//5T+FrnnjiCV1++eWFfz711FM1ZcoUfffdd+rfv7+efvpp3XTTTfrXv/5lx7cAAAAAeNXmzeYxMdHWZVTJ4MFSnTrSli3SvHnlf58VYNm9A2FR1k6Ey5eHaM+ecO3d61JoqNS1q73rat5cio6WcnKkqnSjvf662c3wlFOkYya4AKgCWggD3JNPPlniuX79+qlfv34Ves+ZZ56pM88806trAwAAAJzAqsAK5AArMlK69lpp4kRp2jTpggvK9z5rXyUnBVhdu0qffy6tWOFSQYFpSevcWbJ7vFJIiNSxo7RokbRyZeV+Zm63uT8S1VeAt1GBBQAAAKBasyqwArmFUPK0Ec6aJe3bV773OL0Ca9WqGEnSySfbuKAiOnY0jytWVO79CxaYFsSYGOmqq7y3LgAEWAAAAACquepQgSWZIeMnn2za0958s3zvsQIsGzf3K8FqFVy5MkQrV5oKLLvnX1msOVgrV1bu/Vb11VVXSbVqeWdNAAwCLAAAAADVVkGBmRslBX4FluSpwpo2zbSrHU92trRhgzl2UgVWu3ZSeLh05IhLixaZlMcpFVhWgFWZCqyDB6X//tcc0z4IeB8BFgAAAIBqa9cuM5Q7NFRq2tTu1VTd1VebeVgrVkgLFx7/tevWmQCvdm2pUSP/rK88wsNNq179+lJSUogaNXLbPsDdYrUQVmYnwrfeMqFhly7S3/7m/bUBwY4ACwAAAKhmMjJMaLNnj3nMyLB7Rfax2gebNJHCqsEWVnFxkrWh+PTpx39t0fZBl8uny6qwV14x92b2bGn9eik/3+4VGS1aeHYiXL++/O9zu6WpU83xjTc67+cNVAcEWAAAAEA1kp0tJSdL8fGer+Rk83wwsga4B/r8q6JuuME8vvOOlJ5e9uucOMBdMr+Ln31mKuJatZKaNHE55nc0JMQzL6wibYT/+5+0dKlUo4bZLRKA9xFgAQAAANVERoY0frw0bpyUlmaeS0szfx4/PjgrsarLAPeizjpLatPGhFfWzKXSrFplHp0UYFm/o4895tzf0coMcreqry6/XKpb1/trAkCABQAAAFQb4eFSSkrp51JSzPlgYwVY1WGAu8XlkkaMMMfHayN04g6EgfA7WtFB7keOmGo4ieHtgC8RYAEAAADVRFqap6qltHOHDvlxMQ5RHVsIJWnYMDOY/qefPEFVUQUFzmwhDITfUWuQe3krsN57z1SOtWtnquMA+AYBFgAAAFBNxMWZr7LOxcb6cTEOUR0rsCQpIUHq398cl1aFtW2blJlpBte3auXftR1PIPyOWhVYq1eXbydCq33whhsY3g74EgEWAAAAUE3k5kqjRpV+btQocz6YuN3VtwJLkq6/3jy+8UbJe2tVX7Vt64y2PEsg/I5WZCfCpUulhQtNUDh0qH/WBwQrAiwAAACgmoiJkcaOlR580FPlEhdn/jx2rDkfTPbsMTvbuVxSs2Z2r8b7+veXGjUy3+dnnxU/58T2QcnzO/rQQ8V/Rx96yDm/o0V3IjxRG6FVfTVokNnxE4DvEGABAAAA1UiNGtKpp5oWsq1bzWOvXqZCJNhs3Wr+upOQIEVE2LwYHwgPN7OwJGnatOLnnLgDoSUyUhozRtq9261du/K1e7dbY8aY553CmoN1vEHuWVnSm2+aY4a3A75HgAUAAABUI9u2SQMGSK1bS7VrSz16mEqdYyt0gsHmzWYgUXVsH7RYuxHOnStt3+553qkVWJaYGCkvL0v79q1WXl6WIyqvirLmYB2vAuvDD83g+RYtpPPP98uygKBGgAUAAABUI3/8YR4bNDAB1uDB5s8TJ9q2JNtYAVZ1G+BeVLt20plnml0HZ8zwPG8FWFYrnFNlZ2fbvYRSWQHW8SqwrPbB6683bYcAfIt/zAAAAIBqZMkS89i9u3kcOdL85XrePE9bWbDYurX6V2BJZvc7SXr1VRNkpaVJu3aZ55KSbFtWQLNaCMvaiTA1VfrhB/PP1vDh/l0bEKwIsAAAAIBqxKrAOukk89iihXTxxeb4pZfsWJF9Nm82f92p7gHW5ZebarsNG6T58z3VVwkJ5nlUXGKiFBVldiLcsKHkeWvmWL9+UtOmfl0aELQIsAAAAIBq5NgKLEm67Tbz+Prr0uHD/l+TXbZsqf4thJIUHS1dfbU5nj49cNoHnazoToTHthHm5Jh/liSGtwP+RIAFAAAAVBNpadKmTebYqsCSpD59zDDv9HTpjTdsWJgN3G5PgFXdK7AkTxvhhx9Ky5ZJnTtLPXvau6ZAV9Yg908+kfbulRo3li66yP/rAoIVARYAAABQTVjtgy1aSHXqeJ53uTxVWBMnmnCnujt0KFQZGSbAat7c5sX4wcknS4MGSe+9J40bJ82eLT3yiJSRYffKAldZg9yt9sHhw6WwMP+uCQhmBFgAAABANWEFWEXbBy1Dh0q1apnh0/Pm+XVZtti5s4YkqVEjKTLS5sX4gctlqusWLTIzmVq1MhVCycmSQzf6czxrkHvRCqxNm6SvvzbH11/v9yUBQY0ACwAAAKgmrPlXRdsHLbVqScOGmeOJE/22pOPKyDDzhPbsMY/erBbasSNCUvWff2XJyJCefVZ6/HHTSiqZx3HjpPHjqcSqDKsCa/VqKT/fHE+fbioYzz3XhIQA/IcACwAAAKgmShvgXtStt5rHTz/1zMqyS3a2qQ6Kj/d8ebNaaOdOE2AFw/wrSQoPl1JSSj+XkmLOo2KsnQiPHpXWr5fy8qRXXzXnGN4O+B8BFgAAgIPExsbavQQEqOxsadUqc1xaBZZkBrmfd55UUCBNnuy3pZWQkWGqgsaN8121kNVCGCwBVlqa52dZ2rlDh/y4mGqi6E6EK1dKX3wh7dgh1asnXXKJrUsDghIBFgAAgAPkHc5QVFiYWtWqraiwMOUdpt8HFbNihakQqVtXatas7NdZw9ynTZOysvyztmP5o1oo2FoI4+LMV1nnyMYrx5qDtWKFNHWqOR42TKpRw741AcGKAAsAAMBm7qxshTyTLFd8vEIaxZvHZ5LlzmLyMsrPGuB+0klmoHdZBgwwu/Lt3292rLPDiaqFDh6s+k6Ju3YFVwthbq40alTp50aNMudRcZ06SfXrS+vWSb/9Zp674QZ71wQEKwIsAAAAG+UdzpB7/HiFPFa8lyrksXFyjx9PJRbK7UTzryyhodK//mWOX3yx6kFRZZyoWqhmTem006QHHpCWLq3cGnfsMCUywVKBFRMjjR0rPfSQ52cbF2f+PHasOY+Ku+oqMy/uoYekDRuk777ztBUC8C8CLAAAABuFRoYr5MXSe6lCXkxRaCSTl1E+VgXWiQIsSbr+etMCtXixp6rEn45XLXT77dK8edLChdITT0jdupnA4KGHpOXLyxdmpaVJGRmhkoInwJKkyEhpzBhp926zs+Pu3ebPkZF2rywwZWdLr70mNW1qdhxs2tQEWN7aaABAxRBgAQAA2Mh9MO34vVRpTF7GiRUUSH/+aY7LGuBeVP360tVXm+OJE322rDLl55ug6oEHSlYL3XefdO650jvvSJdeaoK21FTpscekLl1MS9cjj5ih2mXZvt2lzp2lpCR30FUexcRIERFSgwbmMdi+f2/xx0YDACqGAAsAAMBGrjpxx++limPyMk5s/XopPd1U2iQlle891jD39983lTr+dPfd0plnmq/SqoViYkzr1kcfmXNvvSUNGmQCmVWrpEcfNUFW584mUFi92nPtjAypS5dIzZ5tKswIGlAZ/thoAEDFEGABAADYKD87VwW3l95LVXD7KOVnM3kZJ2bNv+rSRQoLK997Tj7ZzJnKzfXsruYP8+ebz1u92oRVJ6oWql1buuYaadYsE2bNnCkNHGgChBUrpIcfNi2GgwZJhw5JyclS48YutWolNWniUnIyLV+ouBNtNHCI4ljA7wiwAAAAbBRWO0ausWNV8OCDxXqpCh58SK6xYxVWm/4fnFhF5l8VZVVhTZ7sn13qsrKkG280xyNHSmedVbH3x8ZK110nzZ5twqzXX5cuusiEWSNGSM88Q8sXvONEGw3EUhwL+B0BFgAAgM1cUZHKvfhyads2ubdulXv3bhXcNUauKCYvo3ysCqzyzL8q6vLLpYYNpe3bpU8+8fqySnjkEWndOqlJE+nJJ6t2rbg4aehQ6bPPTJjVt2/Z87xo+UJFHW+jgVGj/BP4AiiOAAsAAMABFl7zgpSYqHeu+1wdukbofyupvEL5WQFWRSuwatSQbrrJHPt6mPvixdKzz5rjl1/2bgVLXJx0+DAtX/CemBhp7FizscCxGw2MHctwfMAOBFh+kpmZqfXr1+vPP//Uli1bdPToUbuXBAAAHCTqwHZp3z7N+yFcqanSr7/avSIEil27zAB0l8vMwKqom2+WQkOl77+Xli3z/vokKS9PuuEGs/vgFVdIF1/s/c+g5QveFhlpNhYobaMBAP5XzhGPqIycnBx98MEH+vTTT7Vs2TLl5+cXngsNDVXPnj3Vr18/XXrppYqIiLBxpQAAwG6x6dslSVFt6khrCbBQflb1VVJS5apCmjaVLr1U+uAD6aWXzDwsb3v2WbPOOnXK3tmtqqyWr3HjSp6zWr74v9yoKOufqQYNzCO/Q4B9CLB85KOPPtKzzz6ro0ePqnfv3urXr5+aNGmi6OhoHTp0SLt27dLixYv13HPPaeLEiRo1apT+8Y9/2L1sAABgk/o5JsBqdWYtAixUSGUHuBd1220mwJo508ymKquSqTLWrjWzryTp+eel+HjvXbsoq+VLMiFZWpr5PkaNMs9TNQMAgY0Aywduvvlm7d27Vw899JB69+5dZnXVP//5T+Xk5GjOnDl67bXX9NVXX2mqP/cwBgAAjpC5L1N13AclSZ0vjFLIDLe2bHFpxw4pIcHmxcHxKjvAvaizzpI6d5aWL5dmzJBGj/bCwiS53WbGVna2dP75Zui6L1ktX/ff79bBgwWqUydEubkuwisAqAaYgeUDF1xwgT766CP17dv3hK2BERERuuSSSzRr1ixdcMEFflohAABwkj1LTPVVumJUN7GGOnVyS6IKC+XjjQosl8tUYUmmjbCgoMrLkiRNmybNny9FR0tTppjP8bWYGCkvL0v79q1WXl4Ww7YBoJogwPKByy67rMLvcblctBACABCk0laYAGtPeBO5Qlz629/M3EwCLJzIkSOmRU+qWgWWJF17rRl0vm6d9NVXVV6aduyQ/v1vc/z441LLllW/ZkVkZ2f79wMBAD5FgOVDqampWrlyZYnnx48frxUrVtiwIgAA4EQZa0yAlRZt+gX/9jdT/kKAhRNZutQ8NmniGTJdWTVrSsOHm+OJE6t2LclUdB06JJ1yiplDBQBAVRBg+cikSZN0ySWX6KOPPir2/O7du/XWW2/p8ssv1/Tp021aHQAAcJLcTX+1ENZpIskTYC1aZHZOA8rijflXRf3rX+Zxzhxp/frKX+fDD6WPP5bCwkwbYWiod9YHAAheBFg+8N133+mFF17QP/7xD40cObLYufj4eC1YsECDBw/WM888o59//tmmVQIAAKdwbd8mScptYCqw2rRxq04dKSvLU2EDlMYb86+KattWuvBCM3x90qTKXePgQc88rXvvlbp29c7aAADBjQDLB15//XX169dP48aNU/369Uucr1Onjp544gmdfvrpVGEBAADV2GcqsNTEBFghIdKpp5qnaCPE8Xi7AkvyhE/Tp0uZmRV//913S7t2Se3bSw884L11AQCCGwGWD6xZs0YDBw484esuu+wypaam+mFFAADAyWoeMgFWRKuEwudOO808EmChLLm50vLl5thbFViSqcBq1UpKS5Pefrti7503T3r1VXM8dapUo4b31gUACG4EWD6QnZ2tqKioE76ubt26ysjI8MOKAACAk9XNNgFWTDtPgNWrl3kkwEJZVq2ScnKk2rW9u8NfaKhnFtbEiaadsDwyM6WbbjLH//qXdMYZ3lsTAAAEWD7QtGnTclVWrV69WvHx8X5YEQAAcKr8nHw1zN8pSarTuXHh83/7m3lct07au9eOleF4IiMj7V5CsfZBl8u71x4+XIqKkv78U/rpp/K95+GHpQ0bpKZNpfHjvbseAAAIsHzgggsu0BtvvKGDBw+W+Zq0tDS98cYbOvPMM/24MgAA4DR7l+9WmPKVp1DV69iw8Pm4OKlDB3P822/2rA0lZWRIYWFRqlevvcLComRnMb23B7gXVbeudO215njixBO/ftEi6bnnzPGkSaYqDAAAbyLA8oFhw4ZJkq6++mp9+eWXysrKKjyXlZWlr776SldffbWys7M1YsQIu5YJAAAc4MAy0z64N6SRwmqEFjvHHCxnyc6WkpOl+HiXGjcOVXy8S8nJ5nk7+GKAe1G33moeP/xQ2rGj7Nfl5ko33CAVFEhXXSUNGOCb9QAAghsBlg/UqlVLU6dOVXh4uO644w6dcsopOuOMM/T3v/9dPXv21KhRoxQeHq7p06ercePGJ74gAACoto6sNgHW/qgmJc4RYDlHRoZpixs3zgw3l8zjuHHmeX9XYrndvq3AkkwwdsYZUl6e9MorZb/umWdMq2HdutILL/hmLQAAhNm9gOqqdevW+vjjjzV//nwtWLBAu3btUmhoqBISEnTmmWfqjDPOUGho6IkvBAAAqrXsddskSUdim5Y4Zw1yX7hQys83w7Vhj/BwKSWl9HMpKdL99/t3PZs2SYcOmXVZraa+cNtt0o8/SlOmSPfdJ0VEFD+fmio9+qg5njBBatiwxCUAAPAKAiwfCgsL03nnnafzzjvP7qUAAACHcm8zFVhH65eswOrYUapZUzpyRFq5UurSxd+rgyUtzVN5Vdq5Q4ekBg38tx6r+qpz55KhkjddeqnUuLG0c6f00UemRdBSUGB2HTx6VLrgAum663y3DgAAaCH0gYyMDK1YsUJpZf2/HAAAgL+E7TEBlhJKBlihoZ7dCGkjtFdcnPkq61xsrB8XI8/8K1+1D1oiIqSbbzbHxw5znzpV+uEHKSbGVGh5eydEAACKIsDysm+//VYXXnihpkyZosGDB+uNN96we0kAAMDBog+aACs8sWSAJTEHyylyc6VRo0o/N2qUOe9PVgWWrwa4F3XTTVJYmPTTT9KyZea5nTulMWPM8RNPSImJvl8HACC40ULoZY888ojuueceDRgwQGvXrtWgQYM0YMAA1a1b1+6lAQAAB6qTbmZgRbcrOQNLIsByipgY6Y47TNvcxImmbTAuzoRXY8dKkZH+XY+/KrAk00I4apR01llSmzbSnj2m4uz116V33zVzsgAA8DUqsHzA9Vf9tMvlktvtltvttnlFAADAidwFbjXINRVYcZ2OX4G1cmXZM5jge5s3mx35Tj5Z2rXLrY0b3dq2Tbr9dv+HV/v2SdtM7qmuXf3zmePGSYsWSQkJUny81KSJ9Pvv0vTpbC4AAPAPAiwve+SRRzR+/Hjdcccduv766/V///d/qlevnt3LAgAADnR422HVVIYkqWH30gOsBg2k1q3N8cKF/loZjvX669KqVab6Kj8/S/fck6nEROntt/2/Fqt9sE0bqXZt339eRoaUnCw9/rgnRE1LM39OTjbnAQDwNQIsL+vTp4/mzp2rG264QR9//LFuvPFGu5cEAAAcau8fpvoqzRWnmAbRZb6ONkJ7FRRIr71mjkeMMI8JCQe0b5/0ySf+X4/VPuiP+VeSFB4upaSUfi4lxZwHAMDXCLB8oEaNGurSpUuF517l+nv6JwAAsNWhFaYPbE9E6fOvLARY9po/X9q0ycx9uvRS89w556RJkr7/Xjp40L/rsSqw/DH/SjLVVmW1r6alSYcO+WcdAIDgRoDlAwMHDtS3335boffMnTtXAwYM8NGKAACAE2WuNRVYh2uW3j5oKRpgMVrT/1591Txec40UFWWOmzbNUYcOBcrPl+bM8e96/F2BFRdnvso6Fxvrn3UAAIIbAZYPJCcn65lnntGgQYM0depUbd68udTXrV27VtOmTVPfvn317LPP6sknn/TzSgEAgJ3yt5gAK6vu8QOsbt3MoPCDB6U1a/yxMljS0qQPPzTHVvugZcCAfEn+bSPMzJRSU82xvyqwcnPNLoSlGTXKnAcAwNfC7F5AddS1a1fNmjVLb731lmbMmKHnnntOtWvXVpMmTRQVFaXDhw9r9+7dOnLkiOrWrasbbrhB11xzjWrUqGH30gEAgB+F7DQBVn6j4wdY4eFSz57Sjz+aKqykJH+sDpL07rtSdrbUpYvZgbCoAQPy9fTT4friC+noUckf/1du2TIzkys+Xmrc2PefJ0kxMdLYseY4JcWEenFxJrwaO9b/uzACAIITAZaPREREaPjw4bruuuv066+/6rffftPWrVuVnp6uRo0aqXfv3jr99NPVs2dPhbL3MAAAQanGfhNghTQ//gwsybQRWgHWsGG+XhksVvvgiBGSy1X8XI8eBWrcWNq5U/ruO+nCC32/Hmv+lb/aBy2RkdKYMdL995uZV7GxpvKK8AoA4C8EWD4WHh6uM888U2eeeabdSwEAAA5T+7AZ4h7Z+vgVWBKD3O2wbJn0v/+ZCrhrry15PiREGjhQeuUVafZs/wRY1vwrf7UPFhUTYx4bNDCPERH+XwMAIHgxAwsAAMAm9bNNBVZsx/IHWEuXSunpvlwVLK+9Zh4vvtgT2hxr0CDzOHu2fwbs21WBBQCA3QiwAAAAbJCTnqMG7j2SpHpdTxxgNWkiNWtm5h8tWuTr1SEnR5o50xwfO7y9qD59TGXS9u3S77/7dk35+SbAlOypwAIAwE4EWAAAADbY8+dOSdJRRaheUv1yvYc2Qv/57DNp3z4pIUG64IKyXxcZ6Wkd9PVuhKmpUlaWCczatPHtZwEA4DQEWAAAADY4sNTMv9od1kSuENcJXm0QYPnP9OnmcdgwKewEU2OtNkJfB1hW+2C3bmb+FgAAwYT/6QMAALBB+hoz/+pg9InbBy1FAyx/zFsKVtu3S3PnmuPhw0/8+osukkJDzdD3jRt9ty5rgDvzrwAAwYgAyw8OHDigp59+WpdeeqnOOOMMrV69WhMnTtQ333xj99IAAIBNcjaaACsjtvwBVo8eZke83bulTZt8tDDojTfMrLEzz5Tatj3x6+vWNa+VfFuFZVVgMf8KABCMCLB8bOvWrbr44ov1/vvvKz4+Xvv371d+fr42btyoUaNGaf78+XYvEQAA2GGbCbByGjYt91siIz3hBW2EvuF2S6++ao6PN7z9WL5uI3S7PRVYBFgAgGBEgOVjTz31lOrVq6d58+Zp4sSJcv9V7//ss8+qT58+mjx5ss0rBAAAdojYY2ZgqUn5K7Ak5mD52o8/SuvWSTVrSpdfXv73WQHWggXSgQPeX9f27dL+/aZVsVMn718fAACnI8DysV9++UX/+te/VLt2bblcxQe0XnnllVq7dq1NKwMAAHaKOWQqsCJaEmA5iVV9deWVJsQqr5YtpS5dpPx86fPPvb8uq/qqY0dTiQcAQLAhwPKDsDK2rsnJySkRagEAgOBQJ9MEWDWTKhdgLVkiZWd7e1XB7cgR6f33zXFF2gctvmwjtOZfMcAdABCsCLB8rGfPnpoyZYoyMzMLn3O5XCooKNA777yjHj162Lg6AABgB3eBW/F5JsCq26ViAVZiotSwoZSbKy1e7IPFBbH335cyM6WkJKlXr4q/3wqw5s71frjI/CsAQLAjwPKxu+66S+vXr9cFF1ygMWPGyOVyafr06Ro8eLB+//133XnnnXYvEQAA+Nn+1H2qoRxJUsOTEir0XpfLE67QRuhdRYe3V6ZI/uSTzUizjAzp22+9uzYrwKICCwAQrAiwfKxdu3b68MMPdeqpp+q3335TaGiofv75ZzVv3lzvvvuuOnToYPcSAQCAn+1faqqv9roaKqJmRIXfzxws71u9Wvr5ZzMkfciQyl3D5ZIuvtgce7ONMC1N2rTJHBNgAQCCVenDmeA1H3/8sf7+97/r2WeftXspAADAIQ6vMgHWvsgmalCJ9xNged9rr5nH/v2lxo0rf51Bg6RJk6TZs81jiBf+c7E1/6pFC6lOnapfDwCAQEQFlo+NGzdOS5cutXsZAADAQbLWmQDrSK2Kzb+y9OxpgpGtW6Xt2725suCUmyu9/ro5rszw9qLOOUeqVUvatUv63/+qvDRJngCL+VcAgGBGgOVjjRo1Unp6ut3LAAAADlKwZZskKat+00q9v2ZNqUsXc0wVVtXNnSvt3m2G4190UdWuVaOG1K+fOfZWGyED3AEAoIXQ56688ko98cQTWrJkiZKSkhQTE1PiNZdccon/FwYAAGwTusuUTRU0qlwFlmQGuf/5pwmwLrvMWysLTtbw9iFDpPDwql9v0CCzo+Enn0j/+U/Vr2dVYDH/CgAQzAiwfOzJJ5+UJL3//vulnne5XARYAAAEmagDJsAKa1H5AOu006TJk6nAqqrdu6XPPjPHw4d755r9+0thYdLKldK6dVKbNpW/1tGj5joSFVgAgOBGgOVj8+bNs3sJAADAYWLTTYAV3bZqAZYkLVok5eRIERXfzBCS3nxTysuTTj1V6tTJO9eMi5POPluaN89UYd11V+WvtWKFWV/dulLTynWcAgBQLRBg+ViTJpX/P6YAAKB6apBjZmDFdqp8ItG2rdmR7uBBaelSM9gdFeN2e9oHqzq8/ViDBnknwCo6/8rl8s7aAAAIRARYPjZx4sQTvua2227zw0oAAIATZO7LVJw7TZJUv1vl/0NXSIipGpo717QREmBV3MKFpj0vKkq68krvXvvii6VRo6SffpL27ZPq16/cdZh/BQCAQYDlY8cLsGrWrKmGDRsSYAEAEET2LNmuREnpilFss9pVulavXp4Ai/87UXFW9dXll0uxsd69dosWJnT64w8zY+uf/6zcddiBEAAAgwDLx1avXl3iuczMTC1atEiPPPKIHnzwQRtWBQAA7JK2wsy/2hveRDVDqtYTZs3BYpB7xWVmSu+8Y4693T5oGTTIBFiffFK5AKugwOw0KRFgAQAQYvcCglF0dLTOOuss3XrrrUpOTrZ7OQAAwI8y1pgA62BM1Sdy/+1v5nH9emnPnipfLqh8+KF05IjUqpV01lm++YxBg8zjV19JWVkVf//69VJ6uhQZKbVr5921AQAQaAiwbJSQkKD169fbvQwAAOBHuRvNAPfMOlXf6CUuTurQwRz/9luVLxdUrPbB4cPNPDFfOOkkqVkzU+1VmY2prfbBrl2lMPomAABBjgDLBm63Wzt37tS0adPYpRAAgCDj2mEqsPLivfP/AfzdRpiRIeXkmIqvnBzz50Czfr00f77Z1W/YMN99jstlhrlLpo2wohjgDgCAB/8tx8fat28vVxl7HrvdbloIAQAIMjX2mQDL1dQ7AVavXtJrr/knwMrOlpKTpZQUKS3NVICNGiWNHWva3ALFjBnm8YILTIWULw0aJL30kvTpp2amVUWqvRjgDgCABwGWj916662lBlg1a9bUOeeco8TERP8vCgAA2KbmIRNg1Whd9RlYkqcCa+FCKT9fCg31ymVLyMgw4dW4cZ7n0tI8fx4zRoqJ8c1ne1N+vifA8tXw9qLOPluqXVvavdu0efbqVf73UoEFAIAHAZaPXXbZZapfv74iIiJKnDt69KgWL16sHj162LAyAABgh3pZZgZWrfbeqcDq2FGqWdMM+16xwsxL8oXwcFN5VZqUFOn++33zud72zTfStm1S3bqeIeu+FBEh9e8vvfuuaSMsb4C1a5f5Cgnx3T0FACCQMAPLx84991ytXr261HNLly7V8OHD/bwiAABgl/ycfDUo2CVJqtfVOwFWaKhnN0JfthGmpZmvss4dOuS7z/Yma3j7tddKNWr45zOtoKwic7Cs6qt27aToaK8vCQCAgEMFlg889dRTSvvr/+G53W69/PLLqlOnTonXrVq1SrVq1fLz6gAAgF32Lt+tRspXnkLVoHO816572mnSt9+aAOumm7x22WLi4sxXaSFWXJwUG+ubz/Wm/fulWbPMsT/aBy39+pkKttWrpTVrTCh1Isy/AgCgOAIsH2jVqpUmTZokSXK5XFq+fHmJFsLQ0FDVqlVLY8eOtWOJAADABgeWbVcjSXtDGqlxhPeGVVltab6swDp6VLrtNunxx0ueGzVKys017XJO9vbbZufE7t39O1cqNlY65xzp669NFda//33i91gVWARYAAAYBFg+8I9//EP/+Mc/JEl9+vTRSy+9pA4dOti8KgAAYLfDK838q/1RTdXYi9c99VTzuGqVdPCgVErhd5W98ooJqiRp4sTA3IXQah/0Z/WVZdCgigVYVgUWA9wBADCYgeVj33777XHDq/T0dD+uBgAA2OnoBrMDYXqsd+ZfWRo0kFq3NscLF3r10pLM7nljxkhnnSVdf73ZUW/rVjMM/eKLAyO8WrLEVDVFREjXXOP/z7/4YvP488/Snj3Hf+2RI9LateaYAAsAAIMAy8dycnI0depU3XjjjRo2bJiGDh2qoUOHasiQIbrssst0+umn271EAECwWrRIGjJEat5ciooyCchNN0kbN3pec845kssl/f3vZV/nqqvMa/75T89z//ynlJjo+fOMGeY1Rb9CQ02p0AUXSD/9VPyaR49K993nWVu3btL77xd/TWJiyWsW/dq3z7zO5ZIeeaT4OjZtKvePyZvc20yAdbS+dwMsyczBkrzfRpidLQ0fLhUUSD17mh97RISp9kpMlIYN8+7n+YpVfXXppWYHQn9r1kzq0UNyu6XPPjv+a5cuNY9NmphwEgAA0ELoc8nJyXrzzTfVrl07HThwQDVq1FDdunW1Zs0a5ebm6rbbbrN7iQCAYPTSS9Lo0VLv3tKTT0oJCabk4+mnpQ8/NBPBu3Uzrw0JManItm1S06bFr5ORIX36afk/96OPpMZ/Nc8VFEi7dknjxkl9+kj/+5/Utas5d9110ldfmbW1bSvNnGmCstq1pQsv9Fyvf3/pwQdL/6y4OPP4yy8l122TsD0mwHIn+CbAeust7wdYjz5qwqr4eOmFFzzPd+9uMsJ9+0xFUcOG3v1cb8rONj8byZ72QcugQdLixaaN8HjrYIA7AAAlEWD52FdffaXhw4frnnvu0eTJk7Vq1Sq98MIL2r17t6677joVFBTYvUQAQLD56SfpjjvMRO4JEzzPn3OOdMkl5m/NI0ZIv/9unu/RQ1qxQvrvf6U77yx+rU8/lWJiyj90qXv34pVZ1vVbt5ZeflmaPFlasED64ANpzhyzfZsknXuutG6d9MUXxQOsBg08pUdlOdF5P4o5YGZghSV6P1ArOsi9oMDkjlX1v/9JycnmeMqU4pVL9eubvHHpUmn+fOmKK6r+eb7yySdmNlizZuZXyS6DBkkPP2xmYWVmStHRpb/OGuBO+yAAAB60EPrYgQMHdNZZZ0mS2rVrp2XLlkmS4uPjddNNN2nOnDl2Lg8AEIyeftpUJ/3nPyXPNWggPfecCbIyMsxzMTHSRReZAOtY770nXX65FFaF/yaWmGjSkM2bzZ8/+MAEWlZ4JZm2v59+Kl4CVF5FWwhLs2CBdPbZJk2oW9f0xO3dW/HPKYe4DFOBFdPO+xVYXbuaWVRpadKaNVW/3tGjphO0oMDMjBo0qORrevc2j999V/XP86V588yv2D//aTpX7dK1q9SihZSVZUKsslCBBQBASQRYPlarVi3l5ORIklq0aKGdO3cWDm5PTEzUzp077VweACDYuN3Sl1+aMpSyyj+uuMK05cXEeJ678kpPG6Hl8GFTEXX11VVb0/79pg/NmkL+xx9S587S229LHTqYcKxDB2nWrNK/n7y8kl/l9cMPnp/F+++birT5800yk5VVte/r2KUWuNUg1wRYdTp7P8AKDzczqiTvtBGOGyetXGlaA1NSSn+N0wOsjAwTxI0da8aeWbso2sXl8gSBn3xS+mtyc6Xly80xFVgAAHgQYPlYz549NXPmTGVlZalFixaKiorSN998I0lasmSJatasafMKAQBBZd8+MxCoZcuKve+ii0ygVbQK6+OPTbpxxhnlv05+vidkSk83A4Guusr0u918s3nN3r1mK7177jHJwxdfSO3bS4MHS3PnFr/eG2+Y5ObYr/ImOGPHSklJZqr2gAHS0KGmNGb1as/Uby85vO2waspUtTXs7v0AS/LeIPdFi6SnnjLHkydL9eqV/rqzzjKhTGqqtGNH1T7T27KzTftjo0ZSq1ZmDNqLL5rn7WQFWJ99Zv5xONaqVVJOjhQbW/F/TAEAqM4IsHzs1ltv1R9//KGbbrpJYWFhuuaaa/Tggw9q8ODBeuGFF9S3b1+7lwgACCZWq19pf3M+nqgoaeDA4gHWu++ayiyXq/zXadPGEzLVqiWdfLKZbfXWW1KXLuY1OTnSzp2mRGXoUOn8801bYceOpiyoqAEDzKCmY7+sax1PZqZJei66qHglV6tWpuLreD1elbB3ialeO+iqo+j6ZVS/VZE3AqyjR82ug/n5Jlu89NKyX1unjqdKaP78yn+mt2VkSOPHm1+XtDTzXFqa+fP48Z7uWDuceabp4N271+wvcKyi868q8o8WAADVHUPcfax9+/b64osvtOavYRR33XWXatasqcWLF6tPnz666aabbF4hACCo1KljgiNr3lRpMjJMiHTsYPYrrzRpxrZtJtD65hvp8ccr9vmzZ3t2IQwPN4OJmhxTjVSrlnlNjx6e50JDpfPOM5PEi6pXz9M3V1EHD5oBT0895Sk3KioqqnLXLcOhlaZ9cG9EE5Vz5H2FWYPcly2TjhwxP8qKevxx08LWoIGpWDqR3r3NzKbvvjOzspwgPLzstseUFOn++/27nqLCw01m+tZbJqM9toDRmn9F+yAAAMURYPnYgw8+qMsvv1ynn366JMnlcmnkyJE2rwoAENT69jVpQ3a2mfp9rKlTpbvuMpVMRV14oUlEPvjAtBO2bGkqqCqiS5eSuxAeq21baetWUxVVtAQlN9e7oVLt2ub6d95Z+hyvsmaEVVLmWhNgHa7pm/ZBSUpIMDvtbd1q2gCtGVXltXixqVCSpEmTTL54Ir17m7n/TqrASkvzVF6Vdu7QIRPQ2WXQIE+AlZxc/NfcqsBigDsAAMXRQuhjs2fPVoaddeoAABzrrrvM4PQHHih5btcu6ZlnTLte0QooSapRw+xO+MEHZuB5VYe3l6V/f7O+oi18OTlm/tWZZ3rvc2rVMt/j6tWmisv66tRJevhhrycy+VtMgJVV13cBllT5NsKcHLNLX36+meN/2WXle9+ZZ5oRZuvWFZ/xb6e4OPNV1rnYWD8uphQXXihFREhr15pfP4vbXbyFEAAAeBBg+Vj37t3122+/2b0MAAA8TjtNeuwx6dlnTS/T++9L335reqtOOcXsvvf++6W/98orpZ9/NhVcvgqwrr3WBEvXXitNm2aCq0GDTDry8MPe/az//MfsynjttdKcOdKnn5p0Yd68kgFeFYXsMOlOXqOmXr3usSobYD3xhGk9rF9fmjix/O+LjfUU4jllN8Lc3LJ3HBw1ypy3U61aUp8+5rjoboSbNpkKsYgIM4YNAAB40ELoY0lJSZo+fbrmzp2r9u3bK/qYdgSXy6X//Oc/Nq0OABC07r/fBDQTJ0qjR0sHDpjeswEDpPvuM8elOf98U8LSvLnZGdAXwsPNfK377jPrPHLErPWbb7weKumCC0yA9eij0uWXm+Tg5JPNZ1lJkJdE7jcVWKHNfVuBZc3B+uWXkl2YZfnjD5PlSdLLL1e8va53b9Nx+t130pAhFXuvL8TESP/3f2bE2cSJJhSKizPh1dixpXfO+tugQSab/eQT6d57zXNW9VWnTuZXEQAAeBBg+djXX3+thg0bKjc3V8uWLStx3sX2MgAAu/TrZ76O59g2uvBwE3Yda9Om4n+eMaP4n//5T/NVXnXqmCFMkyaV/ZpjP7Msbvfx13HuuebLx2odMQFWVBvfBljdu5vbtHevtHGj2VTxeHJzzY8kL89keP/4R8U/s3dvM8vJKRVYkvmehg0zG1oeOWIqxXJznRFeSdLFF0u33CL99pvp3G3UyDPAnflXAACURIDlY99++63dSwAAAA5QP9sEWLU7+DbAiow0AcjChaaN8EQB1vjx0p9/mg0dX3qpcp95xhlmo8hNm8zXieb0+9qWLdKsWWbTyz17PBVlTqpqSkgwHbv/+5/02WfSDTcw/woAgONhBpafFBQUaPXq1frhhx+Unp6utLK2xgEAANVOTnqOGrj3SJLqdfPtDCyp/HOw/vzTjEOTTKtdw4aV+7yaNU0YIzmjCuvTT83j3/9ugjmnGjTIPFpzsKjAAgCgbARYfvDJJ5/onHPO0SWXXKKbb75Zmzdv1r333qvbb79dOTk5di8PAAD42J4/dkiSslVD9dr5PlEpT4CVmysNH25aBy+91Mznr4revc2jEwKs2bPN48UX27uOE7ECrG++MVVj1i6O3brZtyYAAJyKAMvH5syZo3vuuUennXaann/+ebn/msNx/vnn6/vvv9fLL79s8woBAICvHVhm2gf3hCXIFeL7+ZfWIPclS8ymkqV56ilzvm5dM7i9qmM5rQBr/vziY8f87fBhT4g2cKB96yiPTp1Mi2d2tpkhJklt2phdCgEAQHEEWD42efJkXXXVVUpOTtYFF1xQ+Pxll12m22+/XZ9//rmNqwMAAP6QvsYEWAejfTv/ytKihRQfb6qrFi8ueX7ZMmncOHP84otmgHhVnX66GR6/dau0YUPVr1dZX31lqsvatpWSkuxbR3m4XJ4qsY8/ljp3ls46y941AQDgVARYPrZx40adf/75pZ7r1q2bdu/e7ecVAQAAf8vZaAKsjFj/BFguV9lthNaug7m5poXt6qu985nR0dKpp5pjO9sIrflXF19c9aoyf7j6ajNwfs0a0/o4caKUkWH3qgAAcB4CLB+rV6+e1q9fX+q59evXq14VJ4tOmTJFQ4YMKfbcAw88oKSkpGJfffr0Kdf1cnJyNHDgQN17771VWhcAACjir+FGOQ19P8DdUlaA9fTTpiqrTh1p0iTvhjx2z8HKy5Os4nantw9aunSRFi2SmjY17YQJCaadMDvb7pUBAOAsBFg+1r9/f6WkpGju3LmFA9tdLpeWL1+ul19+WRdeeGGlr/3WW29pwoQJJZ5PTU3VyJEj9eOPPxZ+ffDBB+W6ZnJystasWVPpNQEAgJIi9pgKLDX1TwWW5AmwfvnF89zy5dIjj5jjlBSpcWPvfmbRAMuOOVi//CLt32/CudNP9//nV1RGhvTkk9Ljj0vWBtVpaaa9c/x4KrEAACgqzO4FVHejR4/WmjVrNHr0aIWEmLxwyJAhyszMVM+ePXXHHXdU+Jq7d+/Www8/rN9++02JiYnFzrndbq1bt0433XSTGjRoUKHrLliwQF988YXatm1b4TUBAICyxRwyAVZES/8FWKecIoWESEePSrt2SfXrm10Hc3NNddK113r/M3v1kmrUkHbuNC1x/p5BZbUP9u8vhQXA/8sNDzdBYmlSUqT77/fvegAAcDIqsHwsIiJC06ZN0/Tp0zVixAj94x//0JVXXqlJkybpjTfeUGRkZIWvuWLFCoWHh2v27Nnqdsw+y1u2bFFmZqZatWpVoWseOHBAY8eO1WOPPaY6depUeE0AAKBsdTJNgFWznf8CrJgY6euvpU2bpIICE1zdf7/0t79Jkyf7Zj5UZKSn8suONsLZs82jNRjd6dLSPJVXpZ07dMiPiwEAwOEC4L9NVQ+nn366TjnlFB0+fFixsbEKDw+v9LX69OlT5kwrq/1v5syZ+uGHHxQSEqKzzjpLd955p2odZ0/m+++/X71791afPn302muvVXptAACgOHeBW/F5JsCq08V/M7Cys6X586XLLjNhSFycdNtt0jffSMf5vwRV1ru39P33JsAaOdJ3n3OsNWuk1FRT1dS3r/8+tyri4sxXaSFWXJwUG+vf9QAA4GQEWH7www8/6OWXX9bSpUvldrsVGhqqk08+WXfccYd69Ojh1c9as2aNQkJC1LBhQ02ePFlbtmxRcnKy1q5dq9dff72wjbGod999V+vXr9ezzz7rtXW43W5lZmZ67Xq+kJWVVewRzsR9CgzcJ+fjHtln/+q9aiYzB7NWu9jj/u+jt+5Tfn4NPfNMiB57zFNmlZZmZi2FhLh1110FCgs7WqXPKEuvXiGSIvXdd25lZGT5bSfADz8MkxShM87IV3j4Ufny/4Z48z6NGhWiceNK/pBGjXIrO7tAeXm+uU/VHf/OCwzcp8AQKPfJ7XbLFQjbz6LSCLB87Msvv9To0aPVvn173XbbbapXr5727t2rr7/+WkOHDtWMGTPUs2dPr33eLbfcomuuuaawDbBdu3Zq0KCBrrjiCi1btqxEy+GGDRv09NNPa/r06YqOjvbaOnJzc7Vq1SqvXc+XNm3aZPcSUA7cp8DAfXI+7pH/7f5yk5pJ2uNqqK1bS9+Z+FhVuU9hYWFq376LUlJK/z/xKSku3XefS6tXr1VeXl6lP6cstWq5VKPGSdq7N0Rz5mxUq1b+2U7vgw/aSYrQySdv16pVe/3ymVX95ykyMlJjxrSXFKKUFFdhpdyoUW6NGVOgTZtWK5vtCKuEf+cFBu5TYAiE+xQREWH3EuBDBFg+9tJLL6lv374ldgu87bbbdPvtt+vZZ5/VO++847XPCwkJKTHDyhrKvmvXrhIB1pw5c5SRkaHhw4cXPpedna3Fixfryy+/1JIlSyq1jvDwcLVp06ZS7/WXrKwsbdq0SYmJiYqKirJ7OSgD9ykwcJ+cj3tkn6MfbZEk7Y9sog4dOhz3td64Ty6XS4cOuU4wW8mldu3aye2jrQJ79XJr/nxp27a2uugi74dkx9q/X/rzT/PzGjGigVq0qO/Tz/PmP08uV47uuitC998fUhhgZWcXKCQkRy1btvTKeoMR/84LDNynwBAo92ndunV2LwE+RoDlY5s3b9aYMWNKPXfFFVfo9ttv9+rnjRkzRnv27NGMGTMKn1u2bJkklRooXXfddRo4cGCx5+6++241atRId999d6XX4XK5vFrR5UtRUVEBs9Zgxn0KDNwn5+Me+V/epj2SpMO1m5b7Z1/V+xQaevzZSnFxLkVE+O4vIeedZ+Zv/fRThO680/f/Nfyjj6T8fKlLF6lDB//95cpb/zxZfx9s2NA8RkSESnLuXxIDCf/OCwzcp8Dg9PtE+2D1xy6EPta6devCAOlYGzduVNOm3h3m2rdvX/3yyy+aOHGitmzZou+//1733XefBgwYoNatW0uSjhw5ogMHDkiS4uLi1KJFi2JfkZGRiomJUYsWLby6NgAAglHBVjPA/Wg9/+1AmJsrjRpV+rlRo8x5X+rd2zzOn292QPS1Tz81j4Gy+yAAAKg4KrB87JFHHtHIkSPlcrl0ySWXqGHDhkpLS9M333yjlJQUPfLII9qxY0fh6xMSEqr0eeeee64mTJigV155RVOnTlWtWrU0cOBAjR49uvA1TzzxhBYuXKhvv/22Sp8FAABOLHSXCbAKGvsvwIqJkcaONccpKSoyW8k8Hxnp288/5RQpOtq09i1fLnXt6rvPysmRvvjCHB9TVA4AAKoRAiwfu+KKKyRJEyZM0AsvvFD4vDVz4t///nex11d08PmTTz5Z4rl+/fqpX79+FXpPUTNnzqzQGgAAQNmiDpgAK7S5/wIsyYRUY8ZI998vHTokxcaayitfh1eSFB4unXGG9NVX0nff+TbA+v576cgRKT7eBGcAAKB6IsDysf/85z/04gIAEMRi07dJkqLaendsQHnExJjHBg3Moz83Z+rd2xNg3XGH7z7Hah8cMEAKYTgGAADVFgGWjw0ePNjuJQAAABs1yDEVWHGd/FuBZTdrDtb335sB66Gh3v8Mt1uaPdscM/8KAIDqjQDLD3bv3q3ly5fryJEjpZ6/5JJL/LsgAADgF5n7MhXnTpMkNTgpuAKsk0+WatUy87f+/FPq0cP7n7F8ubR5s2mLPO88718fAAA4BwGWj82ZM0f33nuvcnJySj1vDXcHAADVz54l25UoKV0xqt20tt3L8auwMOnMM6U5c8xuhL4IsKzqq/POM0PjAQBA9UWA5WMTJkxQ165dNXbsWMXFxdm9HAAA4EcHl21ToqQ94U3VKiT4ZmL27m0CrO++k/7v/7x/fdoHAQAIHgRYPrZnzx6NGzdOnTp1snspAADAzzLXmvlXaTHB1T5oseZg/fCDlJdnqrK8ZdcuaeFCczxggPeuCwAAnIm9WnzspJNO0urVq+1eBgAAsEHuJhNgZdYNzgDrpJOk2Fjp8GFpyRLvXvuzz8zjKadIjRt799oAAMB5qMDysYcfflgjR45Uenq6unTpouhSBjSccsopNqwMAAD4mmuHCbDyGgZngBUaKp11lvTpp6aN0Jv/l+fTT80j7YMAAAQHAiwf27Rpk/bt26eJEydKMkPbLW63Wy6XS6tWrbJreQAAOEre4QyFRobLfTBNrjpxys/OVVjtGLuXVWk19pkAy9U0OAMsybQRWgHWmDHeuWZWlvT11+Z44EDvXBMAADgbAZaPPfXUU2revLluvPFG1a9f3+7lAADgWO6sbIU8kyzXiylypaVJcXEKuX2U3GPHyhUVaffyKqXmoW2SpBqtm9q8EvtYc7AWLJByc6Xw8Kpfc948E2I1by517Vr16wEAAOcjwPKxHTt2aPLkyfr73/9u91IAAHCsvMMZCnkmWSGPjfM8mZamkMfGqUBS/t1jArISq16WqcCq3SF4K7C6dpXq1pUOHJAWLZJ69ar6Na3dBwcOlFzBt7kjAABBiSHuPtauXTvt3LnT7mUAAOBooZHhCnkxpdRzIS+mKDTSC2U7fpafk68GBbskSXW7BG+AFRIinX22OZ4/v+rXKyhg/hUAAMGICiwfGzt2rO6++27l5+frpJNOUs2aNUu8JiEhwYaVAQDgHO6DaaZtsDRpaVLaIalhA38uqcr2Lt+tRspXnkLVoHO83cuxVe/e0scfmzlYY8dW7Vq//y7t2iXVquUJxgAAQPVHgOVjw4cPV15enh566KFiA9yLYog7ACDYuerESXFxJqw6VlycFBfr3wV5wf4/t6mRpD2hjZUQEWr3cmxlzcH66ScpJ0eKiKj8taz2wb59pRo1qr42AAAQGAiwfOzRRx+1ewkAADhefnauQm4fVXwG1l8Kbh+lguxchVUl9bDBkdVm/tWByCYK9lrrTp2k+vWlffukhQulM86o/LVoHwQAIDgRYPnYpZdeavcSAABwvLDaMXLfM0ZyF0gTJ5pKrLg4Fdw+Sq6xYxUWgLsQHt1gAqz02OCdf2VxuaRzzpE++MC0EVY2wNq8WfrzTzNXq39/ry4RAAA4HEPc/SAnJ0dvv/22brvtNl155ZVav3693nnnHS1dutTupQEA4Bgrnp0rnXyy3Nu2SRs3yr1tm/Lv+D+5AjC8kiT3NhNgHa1PgCV52gi/+67y17Cqr04/XapXr+prAgAAgYMAy8cOHDigyy67TE888YQ2b96spUuXKjs7W/Pnz9eQIUO0ZMkSu5cIAIAjHHjnK+nSS7Xwque086o75UpM1MIHPrV7WZUWtnubJKmgSVObV+IMVoD1889SdnblrkH7IAAAwYsAy8eSk5OVkZGhOXPm6OOPP5bb7ZYkpaSkqEuXLkpJKX3LcAAAgk38pt8kSe6OnZUa0UXat0+hn3xk86oqL+agqcCKSKQCS5Lat5caNZKOHpV+/bXi7z982FO9NXCgd9cGAACcjwDLx7777jvdcccdatGiRbFdCGvUqKERI0ZoxYoVNq4OAABnyNiToTbZyyRJiVeeqsa3DpYkdd05Vxl7MuxcWqXFZZgAK6YdAZbkmYMlVa6N8KuvpNxcqV07KSnJq0sDAAABgADLx44ePaq4uLhSz4WGhio3N9e/CwIAwIHWvfe7QlWgHaFN1ahHgtr9o5u2hLVUtLK07Jkv7V5ehbkL3GqQawKsuE4EWBarjXD+/Iq/d/Zs80j1FQAAwYkAy8e6dOmit99+u9Rzn376qTp37uznFQEA4DwH55r2wS3xf5MkuUJc2tDNVGHl/zfw2ggPbz2kmjKVYw27E2BZrADr11+lrKzyvy8vT/r8c3PM/CsAAIITAZaP3XHHHfrpp580aNAgvfDCC3K5XPrss880cuRIzZ07V7feeqvdSwQAwHY1/jQBVna3Uwufq3ejCbA6b/pUOek5tqyrsvb+YaqvDrrqKLp+tM2rcY42baQmTaScHDPMvbx++UU6cECqW1f6+999tz4AAOBcBFg+MHToUK1fv16S1LNnT7322muKiorStGnT5Ha7NWPGDO3du1dTpkzRaaedZvNqAQCwX4tdJsCK6+sJsDpdf5p2hzRSrA5r6YRv7VpapRxaaQKsfRFUXxVV2TlYVvtg//5SWJjXlwUAAAIA/xfABxYuXKiMDM/A2VNOOUXvvvuusrOzdejQIdWsWVMxMTE2rhAAAOfYtXiHEvK3KV8hanPlyYXPh4SFKLXDpYpfMUmZb30kPXChjausmMy1JsA6VJMA61i9e0tvvVWxAOvTT80j7YMAAAQvKrD8KDIyUvHx8YRXAAAUsek9U321LrKzajaqWexczaGmjbBD6izl5+T7fW2Vlb95myQps15Tm1fiPNYcrIULpfT0E78+NdV8hYdLffv6dm0A/r+9+w6Pqsz7P/6ZNFIoCS0B6b33riIiRdqKvevq6qqrZn+6GsXCrlhgEX1cZB/RdVXWtq4oCIhl9VlBkI5SFIFQpSShDYGQnvP7495DEgiQMmfmzOT9uq5cc5gzc8493hmG+Xh/vwcA3IsACwAABFTOIhNgpbfof9q+rvddpCOeBDWwDmjjq0v9PbRKC9tvVmAVJbEC61QtW0rNmpnG7EvLMaX26qshQ6TatR0dGgAAcDFKCB1y7733Kioq6pyP83g8+uqrr/wwIgAA3KnO5pWSJE//0wOsyNhI/djqV7pg2yx53/hYun+wv4dXKdGHTIAV1pQA61Qej1mFNWuWKSM816oqygcBAIBEgOWYTp06qW7duoEeBgAArlaYV6g23lWSpKTLTg+wJCny2iuk52apzYaPZRX9jzxhHn8OsVJqHTMBVkwbAqyy2AHWN9+c/XGHDklLlpjtceMcHxYAAHAxAiyH3HvvverWrVughwEAgKtt/3ST2uq4jqmmWo3pWOZjuv1huI4/F6fzCn/RT++sUadb+vh5lBVXP8f0wKrdkQCrLHYfrNWrpWPHpFq1yn7cZ59JRUVSt25S8+b+Gx8AAHAfemABAICASfvkvw3c4/sqPCq8zMfE1I3RhiajJUkZMz/229gqKzczVw2sA5Kk+j1o4l6WZs2kVq2kwkLp22/P/Lh588wtq68AAAABFgAACBhrhQmwjrbvd/bHXW6uRth89UeyiizHx1UVB9bvlyTlqIbqtq0X4NG415Ah5vY//yl7f16e9PnnZpv+VwAAgADLAZdffrkSEhICPQwAAFwvcacJsKIvKrv/la1LymjlKkot87do24JN/hhapR3eYPpfZUQ0Dop+XYFilxGeKcBatMiUFyYlSX3cXzUKAAAcRoDlgMmTJ6tp06aBHgYAAK52PO242uRslCS1uPbsAVbtJrW1ruFwSdKe6e4uIzy+xQRYR2Lpf3U2doD1/feS13v6frt8cOxYKYx/sQIAUO3xzwEAABAQqR+sUbiKtC+8iZJ6NT7n43NHmzLCxO/cHWDlbTcN3I/H0//qbM47T2rb1jRpX7y49D7LkubPN9uUDwIAAIkACwAABIj3C1M+uCvp7KuvbJ0e/ZUKFaaO2d/rl8U7nBxa1ew1K7DyG7AC61zOVEa4YYO0a5cUHS1dcon/xwUAANyHAAsAAARE9DoTYOV2L1+AVa99fa2Pv0iStO2FOY6Nq6qiMkyApSYEWOdypgDLLh8cPlyKjfXvmAAAgDsRYAEAgIBolr5SkpRwafkCLEnKHGbKCOv+x71lhHFHTYAV1ZIA61zsKxGuXy8dPlx8P+WDAADgVARYAADA79LW7lPjwj0qULjaXNu73M9rlzJektTl2HdK/2G/Q6OrmronTA+smu3pgXUuSUlSx46m59WiRea+/fullSbb1JgxgRsbAABwFwIsAADgdzs/MOWD26K7KK5hXLmf16hvE22M668wWdo89ROnhldpVpGlhgX7JEl1u7ICqzzsVVh2GeGnn5rbfv2kRo0CMiQAAOBCBFgAAMDvchaZACu9RfnLB20HB5sywrgv3FdGeGjzQdVQniSpYXfSl/I4tQ+W3f9q3LjAjAcAALgTARYAAPC7OptNgOXp36/Cz23xwOWSpG6H/6Mj2w6f49H+dWi96X91wNNQUTWjAjya4GCvwNq40Vx58N//Nn+m/xUAACiJAAsAAPhVYV6h2nhXS5KSLqv4CqwWw9tqS3RXRapAP/55ga+HVyVHfzT9rw5G0/+qvBo0kLp0kerXl159VapZU2reXOraNdAjAwAAbkKABQAA/Grb/J9US8d1TDXVakzHSh1jX39TRhg5311lhDnbzAqszNr0v6qIWbOknTulO+80tx99JHk8gR4VAABwEwIsAADgV+nzTPlganxfhUeFV+oYje8zAVa3tC90PO24z8ZWVUW/mAArtx4BVnnl5Ehz50pNmkitWpnbefPM/QAAADYCLAAA4FfWChNgHe1Q8fJBW9srumpXRGvFKEcbnv/cV0OrsvA0E2AVNSLAKo+sLGnyZOnppyWv19zn9UqTJpn7s7ICOToAAOAmBFgAAMCvknaZACtmSOUDLE+YRzt6mlVYRR+5p4ww5rDpgRXenB5Y5REZKU2fXva+6dPNfgAAAIkACwAA+NHxtONqnfOjJKnFtZUPsCSp/m9NgNV11wLlZuZWeWy+UOe4WYEV25YVWOXh9RavvCpr39GjfhwMAABwNQIsAADgN6kfrFG4irQ3vKkSezSq0rE6/bqf9oc1Vm0d0/r/+dpHI6yaBnkmwKrTiQCrPOLjzc+Z9tWp48fBAAAAVyPAAgAAfuP9wpQP7k6q2uorSQqLCNOWzpdLknLeC3wZYVZGluItrySpQQ8CrPLIz5eSk8vel5xs9gMAAEgEWAAAwI+i15kAK7d7P58cr/atpoyw49ZPVJBT4JNjVlbG92b11THVVO0mtQM6lmARFydNmCBNnFi8Eis+3vx5wgSzHwAAQCLAAgAAftQ8zQRYCZdWfQWWJHW9d7AOe+qqvnVQG/73W58cs7K8P5oA60DUefKEeQI6lmASHS2lpEjp6VJGhrlNSTH3AwAA2AiwAACAX+xfvVeNivaqQOFqc21vnxwzIjpCP7a5TJKU+VZgywhPbDUBljeO8sGKiouToqKkBg3MLSuvAADAqQiwAACAX+z6l1l9tS26i+Ia+i6hqHGdKSNs9+McFRUU+ey4FZW/0wRYJxIIsAAAAHyNAAsAAPhFziITYKW38E35oK3bg8N0TDXVqGivfpq1yqfHrgjP3j2SpIKGBFgAAAC+RoAFAAD8In6zCbA8A3wbYEXHR2tD0zGSpIOvBa6MsMZBswLL07RJwMYAAAAQqgiwAACA4wrzCtXm6GpJUqPxvg2wJElXmjLCFt9/LKvI8v3xy6FmpgmwoluzAgsAAMDXCLAAAIDjts37UTWVpUzVUstRHXx+/K4Pj1KOaqhFfqq2ztno8+OXR71sE2DV6kCABQAA4GsEWAAAwHHp81dKklIT+io8Ktznx6/VuJbWJY6QJO2b4f8ywoKcAjUoSpMk1e1KgAUAAOBrBFgAAMBx1grT/yqzgwPlg/+VP9aUETZa7v8A68DGdEWoUAUKV4MuiX4/PwAAQKgjwAIAAI5L2mUCrJiL+jl2jk6PjFOBwtU+Z712fZ3q2HnKcniDKR/MCG/kyAozAACA6o4ACwAAOOp42nG1zvlRktTiWudWYNVtW0/rE4ZIkna8OMex85Tl2M8mwDocTfkgAACAEwiwAACAo1L/uVrhKtLe8KZK7NHI0XMdG2HKCOst9m8ZYe52E2Adr0OABQAA4AQCLAAA4CjvF6Z8cHeSc6uvbO1TxkuSuh5frv2r9zp+Ppv1yx5JUk6DJn47JwAAQHVCgAUAABwVvc4EWLk9nA+wkno11oaaAyVJW6bOdfx8toiM/4ZljVmBBQAA4AQCLAAA4Kjm6SbASrjU+QBLkg5dZMoIa33lvzLCuCMmwIpsQYAFAADgBAIsAADgmP2r9qhR0T4VKFxtr+vtl3O2fPBySVK3I4t0aPNBv5wzPssEWHHtCLAAAACcQIAFAAAcs/NfZvVVakxXxdaP9cs5mw9trc3R3RWhQv305/mOn88qstQw3/TAiu9CDywAAAAnEGABAADH5C4yAVZGC/+UD9r2DzRlhDU+db6MMPOXo4rTCUlSw56swAIAAHACARaAaiUrS8rLkzIyzG1WVqBHBIS2+C0rJUme/v38et7z7jcBVveML3Vs3zFHz3XgB1M+eMSToNh6MY6eCwAAoLoiwAJQbeTkSFOnSomJxT9Tp5r7AfheYV6h2hxdLUlqNN6/K7DaXNZZOyLbqobytOHPCx0919GfTIB1MIrVVwAAAE4hwAJQLWRlSZMnS5MmSV6vuc/rNX+ePJmVWIATts37UTWVpUzVUstRHfx6bk+YR7t6mVVYmuNsGeGJLab/lbcW/a8AAACcQoAFoFqIjJSmTy973/TpZj8A30qb998G7gl9FR4V7vfzN7jLBFjdfvlUOV7nlloW7jYrsHLqsgILAADAKQRYAKoFr7d45VVZ+44e9eNggGrCs8IEWJkd/Fs+aOt4cx/tC2+imsrSlr8tcuw8YftNgFWYRIAFAADgFAIsANVCfLz5OdO+OnX8OBigmkjaZQKsmCGBCbDCIsJ06Kq7pblz1fXewSpKz5CVl6eCTN/WDEcfMgFWWFMCLAAAAKcQYAGoFvLzpeTksvclJ5v9AHzn2L5jap37oySp5XWBCbAkqcvrv5dWr5bnvMYKS0qUJzFRYdOmysr2XUlh7WOmB1ZMGwIsAAAAp0QEegAA4A9xcdKECZJlSS+/bMoG4+Ol++6THnrI7AfgO6n/XK2esrQnvJmadEsKyBgKMrMUNu15eZ55pvhOr1dhT09SkaTCh1IUUbvqb/56OWYFVu1ONHEHAABwCiuwAFQb0dHS0KHSnj3Svn3mp1cv6corpby8QI8OTsvKMvOckWFuufKks45+acoHf2kUuNVX4dGRCnu57Ks3hL08XeHRVb96Q25mrhpYByRJ9buzAgsAAMApBFgAqg3LMmFVixamaXtRkfS730n//rf02muBHh2clJMjTZ0qJSYW/0ydau6HM6LXmwArt0fgAizriPfsV2/wVv3qDQfW75ck5aiG6ratV+XjAQAAoGwEWACqjQMHpMOHpUOHpObNTdngH/9o9j39tHT8eGDHB2dkZUmTJ0uTJhVnGV6v+fPkyazEckrz9JWSpISR/QI2Bk9C/Nmv3hBf9as3HF5v+l9lRDSWJ8xT5eMBAACgbARYAKqNn34yty1bSjExZvs3v5HatjVlZS++GLixwTmRkdL0sqvINH262Q/f2r9qjxoV7VOBwtX2ut4BG0dhTr6K7i/76g3Wffer8ERulc9xfLPpf3Uklv5XAAAATiLAAlBt2AFWp07F90VGSnZ/5+efN6u0EFq83rNXkR2tehUZTrHzX6Z8MDWmq2LrxwZsHBG14+SZMEFFT04sXokVHy/riSfkSb5fO8Y/oKyMqi3By9tpAqysePpfAQAAOIkAC0C1sWmTuS0ZYEnSVVdJvXubEsJnn/X/uOCs+PizV5HVqXoVGU6Ru8gEWBktAtf/yuaJiVbRQymy0tNlpWfISk9X3q13KnvIpWq76O/a3nq4vDuOVP4Ee02AldeAAAsAAMBJBFgAqg17BVbHjqXvDwuTpkwx26+8Iu3c6ddhwWH5+VJy2VVkSk42++Fb8VtMgOUZEPgAS/rvSqyoKHkaNpAnKko12jTTtgf+qiOeBHU9vkwZnS5S+g/7K3XsqAwTYKkJARYAAICTCLAAVBtllRDahg0zP3l50sSJ/h0XnBUXJz38sPTEE6WqyDRxojRhgtkP3ynIKVDbo6slSY3GuyPAKkuXOwbo4EeLlRbWSO1yNiin7wXa/c32Ch+nptc0ca/Rih5YAAAATiLAAlAtHDkipaWZ7VNXYNnsVVjvvCOtX++fccE/Jk40ZaJ79kg7dpiqr5QUKTo60CMLPdvm/ag4ndBR1Var0R0CPZyzant5F+V9vUS7IlqpecF2RV1ygbbO2VihYyRkmxVYNduzAgsAAMBJBFgAqgW7/1WTJlKtWmU/pndv6ZprJMuSHnvMf2ODszIzTWno5ZdLL78sjRsnjR3LyiunpM8z5YPbEvoqLML9/8xoNqSVolct0dYaXZRUtF/1rxysja8vL9dzrSJLDQv2SZISuhBgAQAAOMn9/7IEAB84W/lgSc88I0VESJ9+Ki1e7Py44LyPP5ZycqQOHUzD/o0bpWXLpMLCQI8sNHlWmgArs6N7ywdPldijker/uEgbag5QgnVELe4cpjVT/n3O5x3afFA1lCdJati9kdPDBAAAqNYIsABUC/YKrDOVD9ratpXuuMNsP/KIWY2F4Pb22+b2ppukli1N2WBOjrS94u2OUA5Ju02AFTMkeAIsSUpoXVettn2l1fVGqKay1HXCGC17+KOzPufgD6b/VUZYoqJqRvljmAAAANUWARaAaqG8K7Ak0y8pNlZavlz65BNnxwVn7dkj/ec/ZvvGG6Xw8OIQ0/6dgO9k7slU61zzH7bltf0CPJqKi2sYp67b52lZk6sVpXz1m3aNvv3138/4+MxNpv/VoRqUDwIAADiNAAtAtWCvwCpPgNWokfT//p/ZfuwxqaDAsWHBYe+/b1bRXXih1KKFua9zZ3P7448BG1bA1KlTx9Hjb/vXGoXJ0p7wZmrYLcnRczmlRu0a6rftfS1uf4fCVaQLZ92hb8ZOK/OxOdtMgJVZmwALAADAaQRYAELe8ePSrl1m+1wlhLaUFKluXRN8/eMfzo0NzipZPmizQ8zqFGAVZGYpJiJCrWrVVkxEhAoysxw5z9EvTfngL42Cq3zwVOFR4brwp9f0Tf9HJElDPn1Y3wx6TFZR6Zriol9MgJVbjwALAADAaQRYAELezz+b24YNpXr1yvecOnWKr0T4xz9K2dnOjA3OWb9e2rBBioqSrr66+P7qtgLLys5R2LSp8iQmKiwp0dxOmyorO8fn54pebwKs3B7BHWBJkifMoyHLp+ibS6dIkoYsm6xvu9yjwrzi7v/haaYHVlHjJgEZIwAAQHVCgAUg5FWkfLCke++VmjY1fZT++lffjwvOeucdczt2rJSQUHy/HWD9/HPoX4mwIDNL1uTJCnt6kuT1mju9XoU9PUnW5Mk+XYllFVlqkW4CrLqjgj/Asg357BEtvvk1FcmjwZte1Yo2NyrvuLnyYHzkcalLF9Xs3irAowQAAAh9BFgAQp7drLu85YO26GjpqafM9nPPFX//h/sVFkrvvmu2S5YPSuZKhDExUm6utG2b/8fmT+HRkQp7eXqZ+8Jenq7w6EifnWv/qj1KKtqvAoWrzTW9fHZcNxj8jzu14oEPlKdIDfrlA+0ad58KjhxTl5VvSvPmqfczlztWlgkAAACDAAtAyKvIFQhPdcst5nlHjkhTp/p2XHDON99I+/aZlVejR5feFxZWHGaGehmhdcR75uTV65W8R312rl3/MquvtsZ0U2z9WJ8d1y0Gvni11j8zXzmdeqrtv55V+ItT5WnSRGrVSp5GjRwrywQAAIBBgAUg5FW2hFCSwsPN6itJeuklE4rA/ezm7ddcI9Wocfr+6tIHy5MQL8XHl70zPl6qVfO0xuSVlbvYBFgHWoZO+eCp+jw+UmGfLpA1fbo8zzzjeFkmAAAAihFgAQhpOTnFZWIVLSG0/epX0qBBppH7pEm+G1sgZGVJeXlSRoa5zQrB79onTkgffWS2b7657MfYAZa9Oi9UFebkq+j+5LJ33nefPF98oZXnjZd3x5EqnythiwmwwgaGboAlSZGN68szY0aZ+3xdlgkAAIBiBFgAQtqWLVJRkVlskpRUuWN4PNIUcyEyvf66OWYwyskxZZCJicU/U6ea+0PJvHnS8eNSixYmeCxLdVmBFVE7Tp4JE1T05MTilVjx8Sp6cqKsh1OU99gf1T9tnjLb9damd9dW+jwFOQVqk7lGkpT0q34+GLl7+bMsEwAAAMUIsACENLt8sGNHE0RV1oUXSmPGmObgTzzhm7H5U1aWNHmyWUFWoupJkyaZ+0NpJZZdPnjTTWee85JXIiwo8M+4AiY6Wod+kyIrPV1F6Rnm9qEUeWrX0rbH3tDuiJZqVrBDLW8apMU3vVapksJtn2xUnE7oqGqr1egODrwI9zhnWWZ8HT+OBgAAoPogwAIQ0qrSwP1UkyebQOTDD6XVq6t+PH+KjJSml30xOk2fbvaHgowM6YsvzPapVx8sqXlzKTbWlFGG+pUIf/5ZatgiTj37RWrrkUxlFxQoonacJKnjTb1Ve8sarUwcp2jlavC7d2lpm1uUlVGxRDN9/kpJ0raEvgqLCO1/WpytLLPo/mQV5uT7eUQAAADVQ2j/KxNAtVeVBu6n6tq1OBR59NGqH8+fvN6zVz0dDZGqpw8+MKvk+vaV2rc/8+Oq05UIFy82t3XqFOn4ce9p++NbJqjv3rn6ZtSfVaBwXbDjHe1r1l/bF/5c7nN4Vpr+V5kdQ7v/lXT2skzPhAknw0EAAAD4FgEWgJBmr8CqbAP3U02aJEVFSV9/Lf373745pj/Ex5+96qlOiFQ9lSwfPJfq0gfr22/N7fnnF53xMZ7wMA1ZmKIf//K10sOS1Db3RzUY01ffJf+zXOdI2m0CrJghoR9gSZInJlpFD5myTKtkWWZMdKCHBgAAELIIsACErIKC4obrvliBJZnG4PfcY7YffdQ0iA8G+flS8hkuRpecbPYHu82bpVWrpPBw6brrzv346hBgWZa0aJHZPv/8wnM+vnvyRfJ8/72+jx+iWjquQS9fr0Xd7lduZu4Zn5O5J1Otc01S3Or66hFgSf9diRUVJU/DBvJERbHyCgAAwGEEWABC1rZtJpiJi5OaNvXdcR9/XKpVS1q71vTDCgZxcdIDD5gG9CWqnjRxojRhgtkf7N55x9yOHCk1bHjux1eHAGvXLmnPHikiQurXr3xpa8NuSeq6/9/6ZtBjkqSLNszQ1saDtWfprjIfv+2D1QqTpT3hzdWgS6LPxg4AAACURIAFIGTZ5YMdOpieR77SoIH00ENm+4kngmf10vXXS717S/v3S7t3m2Bj/HgpOgSqniyrOMAqT/mgVBxgbd4culcitMsHe/euWEgZER2hIUuf1ao/LtART4K6ZK1U7IW9tGrSZ6c99uiXpnxwd+Pqs/oKAAAA/keABSBk+fIKhKd68EGzyic1VXr9dd8f39d27pQ+/1y66ipz5b2tW0055IgRUu6Zq8OCxnffmddYs6Z02WXle06zZibUyc838xiK7AbuF15Yuef3/dMYZS1eq59i+6iudVh9/zha31zwhArzissRG4elSfXrK68nARYAAACcQ4AFIGT58gqEp6pZU3rySbM9aZKUleX7c/iS3XB+wACpdm1p8GCpRg3p4EHp448DOzZfsJu3X3mlFBtbvueEhRX/boRqGaG9Amvw4Mofo8kFLdR6/xIt6vI7SdKQpc9qx7A7lH/giKy8PLV95QFp504NeulaH4wYAAAAKBsBFoCQ5esrEJ7qt7+Vhg+XZs40YUhGhlnd5MYwyw6whg83txER0p13mu2ZMwMzJl/JzZX+9S+zXd7yQVsoB1jp6aY8UpLOP79qx6pRu4Yu2vBXLf3du8ru1EttPpqqiOkvypOYKE/LllKTJop48zVZ2TlVHzgAAABQBgIsACGpqEj6+Wez7cQKLEmKipI++khavVpq3FhKTDQ/U6dKOS76Hl9YKH39tdm2AyxJuuMOc8W+xYuLw75g9Nln0pEjZg4uvrhizw3lRu5Llpjbrl2lunV9c8zz/3qDwr/8TNb06fI884zk9ZodXq/Cnp4ka/JkFWS6MMEFAABA0CPAAhCSdu2SsrNNyNSypTPnyMqSpk2TTvker0mTpMmT3bMS6/vvpcOHTelgv37F9593njRunNl+9dXAjM0X7PLBG24wgVxFhHKAZfe/qkr5YFkiG8TLM2NGmfvCXp6u8OhI354QAAAAEAEWUC1lZZlSNzeXvFWVvaKofXtTLueEyEhp+vSy902fbva7gV0+ePHFp/+3uPtucztrlnTihH/H5QtHjkgLFpjtm2+u+PPtAGvLluC5mmR52f2vKtvA/UysI97ixPZUXq/kPerbEwIAAAAiwAKqnZwcU+Jml7u5seTNF5y8AqHN6z379/ijLvkef2r/q5KGDzcr1I4elT74wL/j8oXZs00I27Wr1K1bxZ/frJlpyJ+fb67MGCqOHpV++MFs+zrA8iTES/HxZe+Mj5fi6/j2hAAAAIAIsIBqJSvLlLZNmuTukjdfsK9A6FQDd+m/39Xjz7yvjgu+x2dlFfdCGjHi9P1hYdJdd5ntYGzmbpcPVrR5u83jKQ45g7kP2Km++06yLKl1a9MbzJcKc/JVdH9ymfuK7k9WYU6ILWUDAACAKxBgAdVIsJS8+YI/VmDl50vJZX+PV3KyO0rSFi8242jeXGrTpuzH3HabmfuVK6W1a/07vqrYudOUyXk8pv9VZYViHyyn+l9JUkTtOHkmTFDRkxOLE9z4eBU9OVGeCRMUUTvO9ycFAABAtUeABVQjwVLyVlWWVbwCy8kAKy5OmjBBmlj6e7wmTjT3x7nge3zJ8kGPp+zHNGwoXXml2Q6mZu7vvmtuL75YatKk8scJxQDLqf5XNk9MtIoeSpGVni4rPUNWerqKHkqRJybamRMCAACg2iPAAqqRYCh584V9+6TMTHNFurZtnT1XdLSUkiKlp0t79pifYcPM/W5wtv5XJdnN3N991/y3czvLkt55x2xXtnzQFmoBVna2WU0nObMCyxZRO06eqCh5GjaQJyqKlVcAAABwFAFWkHv11Vd18ymX3nriiSfUvn37Uj9Dhw494zGKior0+uuva+TIkerRo4fGjBmjDz/80OmhIwCCoeTNF+zywTZtpKgo588XF2fOk5MjtWhhAiw3hED790sbN5qVV5dccvbHDh5s+oVlZRWvbHKztWuln382QaG9eqyy7FV6W7aYhvDBbuVK815u1Ehq1SrQowEAAAB8gwAriL377rt66aWXTrt/8+bNuvvuu7VkyZKTP7Nnzz7jcV599VW9+uqr+v3vf6958+bplltu0Z/+9CfNnTvXucEjIOLipAcflJ54wr0lb77gj/LBsrRqJdWta0KQzz7z77nL8tVX5rZXL6levbM/1uMpXoX1yitmhZOb2c3bL7tMql27asdq2lSqVUsqKAiNKxGW7H91prJRAAAAINgQYAWh9PR03X333Zo2bZpatGhRap9lWUpNTVWXLl3UoEGDkz9169Y94/Hef/993X777Ro9erSaNWuma6+9VpdddhmrsELUHXdIvXtLe/dKO3aY25QU95S8+YK9AsvJKxCWxeORLr/cbM+Z499zl+XLL81tWVcfLMvNN0sxMdKGDdLy5c6Nq6oKCqT33zfbVS0flEpfiTAUygid7n8FAAAABAIBVhD68ccfFRkZqXnz5ql79+6l9u3evVsnTpxQq3LWjRQVFenPf/6zLre/df9XWFiYMt1QAwWf2rtXmj1buuIK6ZtvpHHjpD59pNjYQI/Mt/xxBcIzsd9KCxdKubn+P7/NsopXYJ2r/5UtIUG67jqzPXOmM+Pyha++kjIypPr1pZEjfXPMUOmDVVAgffed2Xay/xUAAADgbwRYQWjo0KF6+eWX1bRp09P2bdmyRZL09ttva+jQoRo2bJgmTZqkY8eOlXmssLAwDRw4UElJSSfv27dvnz799FNdcMEFzrwABMyCBea2f39z5baffzbldrt3B3ZcvmaXEPp7BZYk9e0rNW4sHTsm/d//+f/8to0bpbQ0E04OGlT+59llhB98IB0+7MzYqsouH7zuOiky0jfHtAMsO/wMVt9/b/qYJSQUvyYAAAAgFEQEegDwrS1btigsLEwNGzbUzJkztXv3bk2dOlVbt27VrFmzFBZ29szy4MGDuvPOO1WvXj3dc889lR6HZVk6ceJEpZ/vD9nZ2aVuq4M5c2pICtell+bJsgrUpUu0fvghTN9+m6sGDQoDPbwyVXSeDhyQDh6MlcdjqVmzbAXi13DMmEj97W+R+vDDAl10UWC6gn/6aYSkKJ1/fqEKC3PL/d+hc2epe/dorVsXpr/9LU/3319Qruf56/107Jg0Z06MJI+uvjpHJ04U+eS4rVuHSYrWxo1FOnEixyfHDISvvjLzPnBggXJySv/uVce/84IR8xQcmCf3Y46CA/MUHIJlnizLkocGoCGNACvE3HPPPbrhhhuUkJAgSWrXrp0aNGiga665Rhs2bDit5LCk7du367e//a0KCwv1j3/8Q7Wr0Bk5Pz9fm+xlMC63c+fOQA/BL06cCNN//mPmv2PHrdq0KUetWzfTDz800JdfHlHHjnsDPMKzK+88rVlTU1J7NW6cp127AvM72L17LUnt9Mknlu6+e5PCw/0/hvnz20iKUufO+7RpU0aFnjtmTH2tW9dc//u/Rbrkkk0VagTu9PtpwYK6ys5uqWbNchQb+6N89ddMZGSkpG7autWj9et/VmSky7vYn8Hnn7eWFKU2bdK0aVN6mY+pLn/nBTvmKTgwT+7HHAUH5ik4BMM8RfnjEuQIGAKsEBMWFnYyvLK1bdtWkpSWlnbGAGvNmjW65557lJiYqNdff12JiYlVGkdkZKTatGlTpWM4LTs7Wzt37lSLFi0UExMT6OE4bt68cOXlhallyyKNGdNSHo80bFi4PvpI2rmzgTp2rOKl3BxS0XlautT8tdalS4Q6BqKGUFKbNtITT1g6fDhSmZmdNWiQb1YJlVdOjvT99+a/1fXX11fHjue4BOEpkpOll1+2tHt3tA4c6KyLLjr3+P31fkpJqSFJuuWWMHXq5Lv57dBBql3bUmamR+HhHdWxY/AFWEVF0saN5r/9FVfUV8eOpS/eUd3+zgtWzFNwYJ7cjzkKDsxTcAiWeUpNTQ30EOAwAqwQk5KSooyMDL311lsn79uwYYMknTFQWr9+ve644w516tRJr7zySpVWXtk8Ho9ig6QzeExMTNCMtSrsK9JddlmY4uLM67WvUrZ2bbhq1IgNyEqh8irvPNmfW127hgd0XseOld55R/rss2gNG+bfcy9fLmVnS0lJUt++MRVaQSWZvlk33SS98or01lvRGjWq/M918v20b5+5+IAk3XZblGJjfft/2Dp1Mv/ttm+PUd++Pj20X2zcaPqWmb5n0WfsD1Zd/s4LdsxTcGCe3I85Cg7MU3Bw+zxRPhj6aOIeYkaOHKlly5ZpxowZ2r17txYtWqTHHntMY8eOVevWrSVJx44d0+H/dmcuKCjQQw89pHr16mnKlCnKzc3VgQMHdODAgZOPQfArLCxu4P6rXxXf36GDFBdnmj4HScXnOdmvIxBXICzJvhrhnDnmioD+9O9/m9vhw1Xh8Mp2113m9uOPpfSyK9H87v33zSqjQYOkcl5otUKC/UqE335rbgcO9F1zewAAAMAtCLBCzCWXXKKXXnpJX3/9tcaNG6fHH39cI0aM0HPPPXfyMc8++6yuuuoqSWb11a5du/TLL79o2LBhuuCCC07+2I9B8FuxwjQ3j4+XSl5cMjxc6tPHbK9cGZCh+Zx9FbkAVQ+eNHKkFB0t7dghrV/v33OXDLAqq3t3E4QUFEhvvOGbcVXVO++Y25tucub4wR5gLV5sbu2VlQAAAEAooYQwyE2ZMuW0+0aNGqVRZ6n5KfmcXr16afPmzY6MDe4xb565HT369JUZ/fpJixaZAOv22/0/Nl86etSUmUmBD7Di4kyI9ckn0ty5JhDyh0OHpLVrzXZVSxfvvltatkx67TUpJUUBLTHduFH64Qfz+3vNNc6cI5gDLMsqXoE1eHBgxwIAAAA4gRVYQDVgB1glywdt/fqZ21BYgWWXD553nlSnTmDHIknjx5vbOXP8d86vvzZhRpcuUqNGVTvW1VdLCQnSzp3FPdQCxV59NXq0VK9iPenLzQ6wUlOl3FxnzuGUHTukvXtNwNe/f6BHAwAAAPgeARYQ4rZuNcFORIR06aWn77cDrPXrTePvYOaW8kHbuHFm1dK6dSZg8Ac7aKpK+aAtJkb69a/N9syZVT9eZRUVSe++a7adKh+UpMaNTfBZWCht2eLceZxgr77q08c0cQcAAABCDQEWEOLmzze3Q4aUvSqpaVMpMdF8af/hB3+OzPfsACvQDdxt9eoVl3P5YxWWZRX3vxoxwjfHtJu5L1gg/fKLb45ZUYsXS3v2mN/fsWOdO4/HE7xlhHb/K8oHAQAAEKoIsIAQd7byQcl8ae/b12wHexmhXULolhVYUumrETpt61Zp924pKsp3QUb79tLFF5tVUK+/7ptjVtTbb5vbq682jfGdFKwBlr0CiwbuAAAACFUEWEAIO3RIWrLEbI8bd+bHhUofLLetwJKK+2AtXSqlpzt7Lnv11fnn+7aM7O67ze3f/ibl5/vuuOWRnS3Nnm22nSwftNm/O8EUYKWlmfDS4zFzDwAAAIQiAiwghH32mSkN7NpVatHizI8LhQArK8s0G5fcFWA1bWr6EllW8Wo4p9gBli/6X5U0frzUsKG0f78pJfSn+fOlzEypWTP/rC4KxhVY9uqrbt2k+PiADgUAAABwDAEWEMLOVT5os0sIU1Olw4edHZNTNm82t/Xrmx83scsI58517hz5+dL//Z/Z9nWAFRUl/eY3Ztvfzdy//dbM5403SmF++MQqeSXCnBznz+cL9L8CAABAdUCABYSo3Fzp88/N9rkCrLp1pTZtzPaqVc6OyyluLB+02WWEX31lVhM5YeVK6dgxM5c9e/r++HfeaUrUvvxS2rbN98c/VVaW+R1+8EGzsu7//T/nzylJjRqZVUxFRcWhqNvR/woAAADVAQEWEKIWLTKBRlKSKWE7F7uMkADL9zp2lNq1k/LyTFmnE+zywWHDpPBw3x+/ZUvp0kvN9muv+f74JeXkSFOnmt/dVq2kJk2kv/7VPyuiSl6J0P6dcjOvV1q/3mwTYAEAACCUEWABIcouHxw3rnylV8F+JUI3XoHQ5vE4fzVCp/pflWQ3c3/jDbM6yglZWdLkydKkSSackcztpEnm/qwsZ85bUjD1wVq61PRXa9vWBH4AAABAqCLAAkJQyYbh5yoftJVs5G5ZzozLSW5egSUVB1gLF/o+/Dl6VFqxwmw7GWCNHm1WQx08KH38sTPniIyUpk8ve9/06Wa/04IpwKL/FQAAAKoLAiwgBK1bJ/3yixQTI11ySfme07OnKT1LTzfPDSa5ucV9mdwaYPXtKzVubMo6v/7at8f+5htztcm2baXmzX177JIiIkwvLMm5Zu6HDxevvDqV12vCOqcFU4BF/ysAAABUFwRYQAiyV1+NGGFCrPKIiZG6dTPbwVZGuHWrCXBq1zZNuN0oLKy4mbuvywi//NLcOrn6yvab35igc/Fi3/aIOnxYevhhqVYt00S9LPHxUp06vjvnmdgB1rZt7r4S4YkTxT3rWIEFAACAUEeABYSgipYP2kqWEQaTkuWDHk9gx3I2dhnhvHkmcPMVf/S/sp13XvHv1auvVv14RUWmp1b79tK0aeZKjfffX/Zjk5Ol/Pyqn/NcEhOlhAQztp9/dv58lbV8uVRQYOakRYtAjwYAAABwFgEWEGL27JHWrDFBzpgxFXtusF6J0M0N3Eu66CKziigjQ1q2zDfH3LXLrEALD5cuvtg3xzwXu5n7rFlmFVBl/fCDdMEFZlXXwYMmgGzUSHrsMWnixOKVWPHx5s8TJkhxcVUcfDmUvBKhm8sI7fLBwYPdHdwCAAAAvkCABYSYBQvM7YABZiVJRdhXIly92rcrhJzm9gbutshIaexYs+2rMkJ79VX//v4pr5OkYcOkVq1MP6oPPqj4871es5qqd28T5MXFSc8/bwKtfv2k6GgpJcX0Y8vIMLcpKeZ+fwmGAMtu4E7/KwAAAFQHBFhAiJk/39xWtHxQMgFQXJx0/Li7S6dOFSwBllRcRjhnjm+u9ujP8kFbWJh0111muyLN3C1LevttqUMH6eWXTYneNdeY37WHHip9hcG4OCkqSmrQwNz6Y+VVSXaA5cs+X76Ul1e8io/+VwAAAKgOCLCAEHL8ePEV7ioTYIWHm1UxUvD0wSookLZsMdtuLyGUpJEjzUqiHTuk9eurdqzCQtMzSvJvgCVJt91mAqeVK6W1a8/9+A0bTAnlLbeYFVXt25vw7YMPpCZNnB9vRbl9BdbatVJ2tlS3bnD83gMAAABVRYAFhJB//1vKzZVat678l9pga+S+fbtZjRITIzVvHujRnFtcnAmxpKqXEX7/vbl6X61axfPmLw0aSFddZbbP1sw9M1N68EGpZ0/Tsyk2Vpo8WVq3zpQiulXJKxFmZwd2LGWx+19deKFZEQcAAACEOv7ZC4SQklcfrGxT52ALsOwSr44dg+eLfMkywqqwywcvvrh0+Z2/2M3c331XOnZMii7RpMqypPffN+WC//M/ZrXYFVeYhvuPPirVqOH/8VZEw4ZSvXrmdbixnJb+VwAAAKhuguTrHoBzKSwsbuBemfJBmx1grV8v5eRUfVxOC5YrEJY0bpwp11y/3qwgqyw7wBoxwjfjqqgLLzRXunz3XalOnRjVq9dBERExysgwJYY33CDt329WBH72mfTRR1KzZoEZa0W5+UqERUXSkiVmm/5XAAAAqC4IsIAQsXy5dPCglJAgnX9+5Y/TrJkpDysoMFeFc7tgauBuq1vX9IOSpLlzK3eMEyekpUvNtr/7X9k8Hum998xVKxs18qhRo3AlJnr08svmqoLdu0uTJkkbN0qXXhqYMVaF/TvltgBr40ZzJce4OFOaCQAAAFQHBFhAiLDLB0ePrlo5mccTXGWE9gqsYAqwJGn8eHNb2TLCxYtN769mzaS2bX02rArJypJeeEF65hkTqEjm9plnzFUGv/pKevJJ07Q+GLl1BZbd/2rQICkiIrBjAQAAAPyFAAsIESX7X1VVsARYRUXBWUIoFQdYS5eaq/JV1Jdfmtvhwyvf76yqIiOl6dPL3vfyy1Lt2v4dj6+5NcCy+19RPggAAIDqhAALCAFbtphG05GRxVe4q4pgCbB27zaldJGRps9SMGnaVOrTxzQJt8PHirD7XwWqfFAyq63slVdl7Tt61I+DcYAdYO3YYX7P3MCySl+BEAAAAKguCLCAEDB/vrkdMkSqU6fqx+vb19xu3SodOVL14znFXn3Vrl1wllJV9mqE+/ebPkgej3TJJb4fV3nFx5ufM+3zxe9iIDVsKNWv764rEW7bZuY/Kqo4aAYAAACqAwIsIAT4snxQkurVK17RtHq1b47phGBs4F6SHWB9/bWUmVn+5331lbnt2dMELIGSny8lJ5e9LznZ7A92bisjtFdf9e0rxcQEdiwAAACAPxFgAUHu0CFpyRKzPW6c745rr8JycxlhsAdYHTtK7dubZuyffVb+59nlgyNGODOu8oqLkyZMkCZOLF6JFR9v/jxhgtkf7NwWYNH/CgAAANUVARYQ5BYuNM3Mu3WTmjf33XGDoQ9WsDZwL6miZYSW5Y7+V7boaCklRUpPt5SWVqj0dEspKcF75cFTuS3Aov8VAAAAqisCLCDI+bp80GYHWCtWmNDEbSwr+FdgScUB1sKFUm7uuR+/caOUlmbKx84/39mxlVdcnFRQkK2DB39WQUF2SKy8srkpwNq3z/TACguTBg0K9GgAAAAA/yLAAoJYbq70+edm29cBVs+eUni4lJ4u7dnj22P7wv795ip3YWGmiXuw6tNHatxYOnbM9MI6F3v11eDBUo0azo6tonJycgI9BJ+zw9EdO6SsrMCOxV591b178DfIBwAAACqKAAsIYt98Ix0/LjVqJPXu7dtjx8ZKXbuabTeWEdrlg61buy/IqYiwMGn8eLNdnjJCN5UPVgcNGpgfqfh3LlDofwUAAIDqjAALCGJ2+eC4cSYI8TW7jHDVKt8fu6pCoXzQZpcRfvKJVFh45sfl5kqLFpltAiz/scsI7d+5QKH/FQAAAKozAiwgSFmWc/2vbG6+EmEoBVgXXSQlJEgHDkjffXfmx333nZSdLSUmFq+Og/Pc0Afr8GFpwwazTYAFAACA6ogACwhSP/xgelPFxkpDhzpzDnsF1urVZ18ZFAihcAVCW2SkNHas2Z4798yPK1k+6PE4Piz8lxsCrCVLzG379lLDhoEbBwAAABAoBFhAkLJXX40YYa5I54ROnUxAduyYtHmzM+eorFBagSUVlxHOmXPmqz5++aW5pXzQv9wQYNnlg/S/AgAAQHVFgAUEqfnzza1T5YOSFBFR3BzeTWWEBw+acjtJ6tAhsGPxlZEjTRC5Y4e0fv3p+w8dktauNdvDhvl3bNWdHWDt3GkumhAIdgN3ygcBAABQXRFgAUFozx5pzRpTRjZmjLPnsssI3RRg2eWDzZtLcXGBHYuvxMaa1XRS2Vcj/PprszKrc2epcWP/jq26q1fP9B2TAnMlwuPHi8NLVmABAACguiLAAoLQggXmduBA5/vhuPFKhKFWPmgrWUZ4qpL9r+B/9u9aIMoIly+XCgqkpk1NaAsAAABURwRYQBBy+uqDJdlXIly3TsrJcf585RFKDdxLGjdOCg83JYTbtxffb1nFAZa9Sgv+ZZcR2uGpP9H/CgAAACDAAoLO8eOmnEzyT4DVooVUv76Un29CLDcI1RVYdetKF11ktkuuwtq6Vdq1S4qKIsQIlEA2crf7XzH3AAAAqM4IsIAg8+WXUl6e1KaNfxqYezzu64MVqgGWVFxGOHdu8X326qtBg0Kn51ewCVSAlZdnSgglGrgDAACgeiPAAoJMyfJBj8c/53RTgJWZKe3da7ZDrYRQksaPN7dLl0rp6Wab/leBZwdYu3b590qEq1eb0t369UPnipsAAABAZRBgAUGksLC4gbs/ygdtbgqw7P5XjRpJ8fEBHYojmjQxfccsy4SVBQXSf/5j9hFgBU7dulJSktn2Zx8su//VhRf6L7AGAAAA3IgACwgiy5ZJhw5JCQnS+ef777x2I/ctWySv13/nLUsolw/a7FVYc+aY0DAz08x5r14BHVa1F4gyQvpfAQAAAAYBFhBE7PLBMWOkiAj/nbd+fallS7O9erX/zluWUL0CYUl2H6x160wpYf360rBh5gqFCBx/B1iFhWb+JfpfAQAAAARYQBAp2f/K39xSRlgdVmB17Gia9W/ZIl11lbRzp/TMM4EeFezfOX8FWBs2SEePSrVqSd27++ecAAAAgFsRYAFBYvNm8xMZKY0c6f/zuyXAqg4rsHJyTO+jJk2kVq3M7bvvmvsROPYKLH/1wLL7Xw0a5N8VlwAAAIAb8U9iIEjMn29uhwyRatf2//ntAGvFCtNgPBANpU+ckHbsMNuhugIrK0uaOlV6+uni+7xeadIks52SIsXFBWRo1Z4dYO3eLR07ZlZGOYn+VwAAAEAxVmABQSKQ5YOS1LOn6cGUlibt3RuYMWzebMKzevWkBg0CMwanRUZK06eXvW/6dLMfgZGQYK5+KTm/CsuypAMHTP8z+l8BAAAABFhAUDh0yPTCqV9fGjcuMGOIi5O6dDHbgSojLFk+GIgVYP7g9Z75So9er/k9QOD4o5F7VpaUlye9+abpf9ajh3PnAgAAAIIFARbgcllZJjyaO1fatcuEWIFilxGuWhWY81eHBu7x8ebnTPvq1PHjYHAapwOsnBxTQpqUVNz/bNo0+p8BAAAABFiAi9lfZhs1Ml9mzzvP/DlQX2b79jW3gVqBVR0CrPx8KTm57H3JyWY/AsfJACsrS5o82fQ7s1fh2f3PJk82+wEAAIDqigALcCk3fpktuQKrqMj/568OVyCMi5MmTJAmTixeiRUfb/48YQIN3APNyQCL/mcAAADAmRFgAS7lxi+znTtLMTHmCmybN/v33Hl50tatZjuUV2BJUnS0udpgerqUkWFuU1LM/Qgs+3dvzx7f9yOj/xkAAABwZgRYgEu58ctsRITUu7fZ9ncZYWqqR4WFUq1appQy1MXFSVFR5mqLUVGsvHKL+HipcWOzba8I9OWx6X8GAAAAlI0AC3Apt36ZtcsI/R1gbd5s/roK5SsQIjg4UUZoWdIPP0j33Vf2fvqfAQAAoLojwAJcyq3NvAN1JcKffzapVaiXD8L9nAiwJk+Wbr3VvLfpfwYAAACcLiLQAwBQtrg46YEHTLP0GTNM2WB8vPmCO2FC4Poh2Vci/OEHKTdXqlHDP+f9+efiFVhAIPk6wProI+nxx83211+bfmePP27KhOvUMWE1/c8AAABQ3RFgAS5VUCCNGSM9/LC0f79pnO6GL7MtW0r16kmHDknr1hWvyHKaHWCxAguB5ssAa/Vq6eabzfbvfy9dd13xvgYNzG1UVNXPAwAAAAQ7SggBl1q8WPruO+mOO0zzdLc08/Z4/N8Hq7BQ2rqVEkK4g/07uHfvmS+0UB579ki/+pWUnS2NGiW98IJPhgcAAACEJAIswKU+/NDcXn65CbDcxN8B1r59NZSb61F0tNS8uX/OCZxJnTpSkyZm+6efKneM48elcePM6srOnaV//lMKD/fdGAEAAIBQQ4AFuFBBgfTxx2b76qsDO5ay+DvA2r7d1Ex26MCXfLhDVcoIi4qkm24yfeQaNJAWLJBq1/bp8AAAAICQQ4AFuNDixVJGhlS3rnTxxYEezensRu6bN5tG007bscMEWJQPwi3s38XKrMCaMEH65BNzAYS5c6UWLXw5MgAAACA0EWABLlSyfDAyMrBjKUuDBsVfulevdv58O3bESOIKhHCPyq7AeuMNaerU4u1Bg3w7LgAAACBUEWABLlNY6O7yQZs/ywhZgQW3qUyA9c030l13me2JE6UbbvD5sAAAAICQRYAFuEzJ8sGhQwM9mjPzV4BVVESABfexfxf37SvflQhTU6UrrzT97a69VvrTn5wcHQAAABB6CLAAl7HLB8ePd2f5oM1fAdbevR5lZ4crIsJS69bOngsor9q1paZNzfa5VmEdOSKNHSsdPmzeN2++KXk8zo8RAAAACCUEWICLBEv5oCT16iWFhZkVKHv3OneeTZvMN/22bS1XB3qofspTRpifb97LmzebwOuTT6SYGP+MDwAAAAglBFiAi3z7rZSeLiUkSJdcEujRnF1cnNSli9letcq58+zaFaYuXaS+fYucOwlQCecKsCxLuu8+6euvzftl/nwpKcl/4wMAAABCCQEW4CLBUj5o69vX3DpVRpiVJf32t5GaN0+aOTNcWVnOnAeojHMFWH/5i/Taa6Zc8P33pe7d/Tc2AAAAINQQYAEuUVgoffSR2XZ7+aDNyT5YOTnS1KlS48YetWplbqdONfcDbmA3cv/pp9P3LVggPfig2Z42TRo3zn/jAgAAAEJRRKAHAMBYssSUD8bHu7980GYHWKtWmasFhvkoEs/KMuHVpEnF93m9xX9OSTElWUAg2QHW/v2mUXtCgvnz+vXS9debEsI775QeeCBwYwQAAABCBSuwAJcoWT4YFRXQoZRb586mIXVmprRli++OGxkpTZ9e9r7p04OjvBKhr1YtqVkzs22XEaalmdVWx49LQ4dKf/0rVxwEAAAAfIEAC3CBYCwflEyQ1KuX2fZVGeHx41JGhllxVRavVzp61DfnAqqqc2epfn2zCis72wTQu3dL7dpJs2cTtgIAAAC+QoAFuMDSpWblRny8NGxYoEdTMSXLCKvCsqQPPpAGDDClWPHxZT8uPl6qU6dq5wJ85bnnpJ07ze+tZUmPPir17296YNklhQAAAACqjgALcAG7fPCyy4KnfNDmiysRbtkijRwpXXedKcX67jspObnsxyYnS/n5lT8X4Cs5OdLHH0tNmphSwvPOk9askb76SmrbNtCjAwAAAEILTdyBACsqCs7yQZu9AuuHH6TcXKlGjfI/NztbmjxZ+vOfpbw889zHHpMGD5YuvNA8Zvp0UzYYH2/CqwkTpOhoH78IoILsCw08/XTxfV6v9Mwz5mIGXGgAAAAA8C1WYAEBtnSp6Z9Tp440fHigR1NxrVpJdeuaAGr9+vI/77PPpC5dTACQl2dWYG3cKE2caIKs6GgTAqSnW0pLK1R6uqWUFMIruAMXGgAAAAD8iwALCLBgLh+UzBXW7FVY5Skj/OUX6aqrpNGjpe3bTdnV7Nkm0GrTpvRj4+KkgoJsHTz4swoKslnRAtfwernQAAAAAOBPBFhAAAV7+aCtPAFWfr40bZrUsaN5zeHh0h/+IG3aJF15pQnCziQnJ8e3AwaqKD6eCw0AAAAA/kSABQTQd99J+/ZJtWsHZ/mgzQ6wUlPL3r9kidSrl/Tww6Z30PnnS99/bwKtWrX8N07AV/LzudAAAAAA4E80cQcCqGT5YEWan7vNgAHS3LnSsGFSerqUkGC+wOfmSg89JL35pnlcvXrS889Lt95qGl0DwSouzlxQQOJCAwAAAIA/8BUSCJCiItP7SQru8kHJfJlfvVpq0kRKSpISE82VBQsLpWXLzGPuvFPavFm67TbCK4SG4gsNSBkZ5pYLDQAAAADOYAUWECDLlhWXD44YEejRVF5WljR1qvTMM8X3eb3m6oKWJc2YYQKuAQMCNkTAMfaFBRo0MLfBeCEGAAAAIBiwDgIIELt88Fe/Cu7ywchIU0JVlhkzpAsvJLwCAAAAAFQNARaqtegA1fqEUvmg12t+zrTv6FE/DgYAAAAAEJIIsFAtZWVJERExqlevgyIiYpSV5d/zL1sm7d0b/OWDkmlcHR9/5n116vhxMAAAAACAkESAhWonJ8f0bEpM9KhRo3AlJno0daq5319Klg8Ge8Pn/Hxz5bWyJCeb/QAAAAAAVAVN3FGt2A3HJ00qvs/rLf5zSkpxU2anhFL5oGT+e02YYLanTzf/PePjTXg1YULwB3QAAAAAgMBjBRaqlbM1HJ8+3ex32vLlpnywVq3gLx+0RUeb8C89XcrIMLcpKYRXAAAAAADfIMBCteKGhuOhVD5YUlycFBUlNWhgbp1eyQYAAAAAqD4IsFCtBLrheKiVDwIAAAAA4A8EWKhWztZw/P77nW84vmKFtGePKR8cOdLZcwEAAAAAECoIsFCt2A3HJ04sXokVHy898YQJsL7/3tnz2+WD48aFVvkgAAAAAABOIsBCtVPccNxSWlqh0tMt/epX0uDB0uWXmwbrTqB8EAAAAACAyiHAQrUUFycVFGTr4MGfVVCQra5dTbB18KB0/fVSQYHvz7lypfTLL1LNmpQPAgAAAABQEQRYqNZycnIkmfDqww9Nb6pvv5WefNL35ypZPhgT4/vjAwAAAAAQqgiwgP9q00b6+9/N9pQp0mef+e7YlkX5IAAAAAAAlUWABZRw9dXSvfea7ZtvNiV/vrBypbR7tykfvPRS3xwTAAAAAIDqggALOMULL0i9ekmHDknXXSfl51f9mHb54NixlA8CAAAAAFBRBFjAKWrUkP71L6l2bem776THH6/a8SgfBAAAAACgagiwgDK0bi298YbZfv55acGCyh9r1Spp1y5z5cNRo3wzPgAAAAAAqhMCLOAMrrxSSk4227feanpYVQblgwAAAAAAVA0BFnAWzz8v9e0rHT4sXXutlJdXsedbVnGARfkgAAAAAACVQ4AFnEVUlPTBB1J8vLR8uTRhQsWev3q1KR+MjaV8EAAAAACAyiLAAs6hZUvpzTfN9osvSp98Uv7nliwfjI31/dgAAAAAAKgOCLCAchg/XnrgAbP9619LO3ee+zmUDwIAAAAA4BsEWEA5TZki9e8veb3l64e1Zo0JumJjpdGj/TFCAAAAAABCEwEWUE52P6yEBGnlSikl5eyPt1dfjRlD+SAAAAAAAFVBgAVUQPPm0qxZZvsvf5HmzCn7cZQPAgAAAADgOwRYQAWNGyc99JDZvu02afv20x+zZo20Y4cUE0P5IAAAAAAAVUWABVTCc89JAwdKR49K11wj5eaW3l+yfDAuzv/jAwAAAAAglBBgAZUQGWn6YdWta1Zb2SuyJMoHAQAAAADwNQIsoJKaNpXefttsz5ghzZ5ttn/6STp2zJQPjhkTuPEBAAAAABAqCLCAKhg9WnrkEalDBxNY5eZKdepIO3dKX31F+SAAAAAAAL5AgAVU0TPPSEuXSsuXS0lJZmVWkybSF19IOTmBHh0AAAAAAMGPACvIvfrqq7r55ptL3ffEE0+offv2pX6GDh161uN89tlnGj16tLp166bx48dr2bJlTg47pOTmSn/5iwmyvF5zn9crTZokTZ4sZWUFcnQAAAAAAAQ/Aqwg9u677+qll1467f7Nmzfr7rvv1pIlS07+zLYbNJVh+fLlevjhh3Xddddpzpw5GjhwoH77299q27ZtDo4+dERGStOnl71v+nSzHwAAAAAAVB4BVhBKT0/X3XffrWnTpqlFixal9lmWpdTUVHXp0kUNGjQ4+VO3bt0zHu9vf/ubhg0bpltuuUWtW7fWI488os6dO2vWrFkOv5LQ4PUWr7wqa9/Ro34cDAAAAAAAIYgAKwj9+OOPioyM1Lx589S9e/dS+3bv3q0TJ06oVatW5TpWUVGR1q5dq4EDB5a6v3///lq1apXPxhzK4uPNz5n21anjx8EAAAAAABCCIgI9AFTc0KFDz9jTasuWLZKkt99+W4sXL1ZYWJgGDx6sBx54QLVq1Trt8ZmZmTpx4oSSkpJK3d+wYUOlpaX5fvAhKD9fSk42Pa9OlZxs9kdF+X9cAAAAAACECgKsELNlyxaFhYWpYcOGmjlzpnbv3q2pU6dq69atmjVrlsLCSi+6y/nvZfKiTklYatSoodzc3EqPw7IsnThxotLP94fs7OxSt5UVFubRo49GS5KmT/fI6zUrr5KTLT36qCTl6MQJq0rnqM58NU9wFvPkfsxRcGCeggPz5H7MUXBgnoJDsMyTZVnyeDyBHgYcRIAVYu655x7dcMMNSkhIkCS1a9dODRo00DXXXKMNGzacVnJYo0YNSVJeXl6p+3NzcxUTE1PpceTn52vTpk2Vfr4/7dy5s8rHiI6O1t13N9Fjj9WS12spPt6jw4ePafv2PSdDQlSNL+YJzmOe3I85Cg7MU3BgntyPOQoOzFNwCIZ5OnVhBkILAVaICQsLOxle2dq2bStJSktLOy3Aio+PV2xsrDIyMkrdn5GRocTExEqPIzIyUm3atKn08/0hOztbO3fuVIsWLaoU1pVUWJij2rU9Kiy0VKdOpOrUaemT41ZnTswTfI95cj/mKDgwT8GBeXI/5ig4ME/BIVjmKTU1NdBDgMMIsEJMSkqKMjIy9NZbb528b8OGDZJUZqDk8XjUq1cvrVy5UldfffXJ+1esWKE+ffpUehwej0exsbGVfr4/xcTEBM1YqzPmKTgwT+7HHAUH5ik4ME/uxxwFB+YpOLh9nigfDH1chTDEjBw5UsuWLdOMGTO0e/duLVq0SI899pjGjh2r1q1bS5KOHTumw4cPn3zObbfdpk8//VRvvvmmtm3bpqlTp2rTpk269dZbA/UyAAAAAAAATiLACjGXXHKJXnrpJX399dcaN26cHn/8cY0YMULPPffcycc8++yzuuqqq07++YILLtBzzz2n999/X5dffrmWL1+umTNnngy8AAAAAAAAAokSwiA3ZcqU0+4bNWqURo0aVaHnjB8/XuPHj/fl0AAAAAAAAHyCFVgAAAAAAABwNQIsAAAAAAAAuBoBFgAAAAAAAFyNAAsAAAAAAACuRoAFAAAAAAAAVyPAAgAAAAAAgKsRYAEAAAAAAMDVCLAAAAAAAADgagRYAAAAAAAAcDUCLAAAAAAAALgaARYAAAAAAABcjQALAAAAAAAArkaABQAAAAAAAFcjwAIAAAAAAICrEWABAAAAAADA1QiwAAAAAAAA4GoEWAAAAAAAAHA1j2VZVqAHgdCydu1aWZalqKioQA/lrCzLUn5+viIjI+XxeAI9HJwB8xQcmCf3Y46CA/MUHJgn92OOggPzFByCZZ7y8vLk8XjUq1evQA8FDokI9AAQetz8l1pJHo/H9SEbmKdgwTy5H3MUHJin4MA8uR9zFByYp+AQLPPk8XiC5rsoKocVWAAAAAAAAHA1emABAAAAAADA1QiwAAAAAAAA4GoEWAAAAAAAAHA1AiwAAAAAAAC4GgEWAAAAAAAAXI0ACwAAAAAAAK5GgAUAAAAAAABXI8ACAAAAAACAqxFgAQAAAAAAwNUIsAAAAAAAAOBqBFgAAAAAAABwNQIshJRXX31VN998c6n7vv32W1155ZXq2bOnxo0bpwULFpzc9/HHH6t9+/Zl/txyyy0nH7dp0ybddNNN6tGjh4YOHap//OMffntNocipeXriiSdO2z906FC/va5QUtE5kqSsrCw99dRTuuCCC9SnTx/deeed2rZtW6nHLFu2TFdccYW6d++uSy+9VJ9++qnjryWUOTVPt91222nvpVPPg/KrzDwdOHBADz74oAYMGKBBgwbp6aef1okTJ0o95rPPPtPo0aPVrVs3jR8/XsuWLXP8tYQqp+ZoxIgRp72XHn30UcdfTyjxer2aOHGiBg8erF69eun666/X6tWrT+4/1+dKbm6unnrqKQ0cOFA9e/bUH/7wBx0+fLjUY/hsqjp/zBOfTVVT1TkqaeLEiWX+XcZ7CY6zgBDxzjvvWB06dLBuuummk/etXr3aat++vTVp0iQrNTXVWrBggdWzZ09rzpw5lmVZVnZ2tpWRkVHq5x//+IfVsWNHa+nSpZZlWdbhw4et/v37WxMmTLBSU1Ot2bNnW127drVmz54diJcZ9JyaJ8uyrKuuusp68cUXSz3u0KFD/n6JQa8yc2RZlvXII49Yo0aNstasWWOlpqZad911lzVkyBArJyfHsizLSk1Ntbp27Wq9+OKLVmpqqvX6669bnTp1sr777jt/v8SQ4NQ8WZZlDRw40HrvvfdKvZeOHDnix1cXOiozT3l5edbYsWOtsWPHWqtWrbI2btxoXXvttdatt9568hjLli2zOnfubM2aNctKTU21pkyZYnXp0sVKTU318ysMfk7NUVZWltWhQwfrP//5T6n3UmZmpp9fYXC77bbbTv533r59u/XUU09Z3bp1s7Zt21auz5VHH33UGjZsmLVq1Spr3bp11vjx460bb7zx5H4+m3zD6XmyLD6bqqqqc2RZllVYWGi98MILVrt27axHHnmk1D7eS/AHAiwEvbS0NOuuu+6yevToYV166aWl/gF6zz33WFdffXWpx//v//6vdfHFF5d5rP3791u9e/e2Xn755ZP3zZw507rgggus/Pz8k/e98MIL1ogRI3z8SkKb0/NUVFRk9ejRw/ryyy+deQHVQFXnqHfv3tY//vGPk3/etGmT1a5dO2vjxo2WZVnWk08+aV111VWljvHggw9at99+uxMvJ2Q5PU8HDx602rVrZ/34448Ov5LQVpV5+ve//221a9euVBi1f/9+q3379taKFSssy7Ks22+/3fr9739f6hjXXnut9eSTTzr0ikKP03O0bt06q127dpbX6/XDqwlNO3futNq1a2etXr365H1FRUXWsGHDrJdeeumcnytpaWlWhw4drG+++ebk/u3bt1vt2rWz1q5da1kWn02+4I954rOpaqo6R5ZlAqprr73WGjBggDVkyJDTAizeS/AHSggR9H788UdFRkZq3rx56t69e6l9u3btUu/evUvd16lTJ+3du1f79u077VjPP/+8GjZsqN/+9rcn71u9erX69euniIiIk/cNGDBAO3fu1MGDB338akKX0/O0e/dunThxQq1atXLmBVQDVZ2jevXqaeHChTp06JDy8vI0e/ZsxcfHq1mzZpLMe2ngwIGljjFgwACtWbNGlmU5+MpCi9PztHnzZnk8HrVs2dI/LyhEVWWedu7cqYSEBLVu3frk/qSkJCUkJGjlypUqKirS2rVrT3s/9e/fX6tWrXLuRYUYJ+dIMu+l+vXrq06dOs6/mBCVkJCg1157TV27dj15n8fjkcfjUWZm5jk/V9asWXPyPlvLli2VmJh48r3CZ1PV+WOe+GyqmqrOkSQtX75crVu31oIFC9SkSZPTzsF7Cf4Qce6HAO42dOjQM/Y5atiwofbv31/qvj179kiSDh06pMaNG5+8f/PmzVqwYIH++te/Kioq6uT9aWlpateu3WnHlaT9+/erfv36Pnkdoc7pedqyZYsk6e2339bixYsVFhamwYMH64EHHlCtWrV8/XJCUlXn6Nlnn1VKSooGDRqk8PBwxcbG6o033jj53z8tLU1JSUmnHTc7O1tHjhxR3bp1HXhVocfpedqyZYtq1aqlSZMmaenSpYqNjdWll16q3/3ud6Xeczi7qsxTw4YNdezYMR0/flw1a9aUJB0/flxHjx7V4cOHlZmZqRMnTpT5fkpLS3Pg1YQmJ+dIMp9XsbGxSk5O1tq1a5WQkKArr7xSt9xyi8LC+H/I5VG7dm1ddNFFpe774osvtGvXLj322GOaM2fOWT9X0tPTlZCQoBo1apz2GPu9wmdT1fljnvhsqpqqzlHdunV14403nvUcvJfgD3x6IqRddtll+vLLLzVv3jwVFBRo06ZNeuONNyRJ+fn5pR771ltvqX379rrkkktK3Z+Tk3PaB6P9AZubm+vg6KsPX8zTli1bFBYWpoYNG2rmzJl69NFHtWTJEv3ud79TUVGR315LqCrPHG3evFlNmzbVm2++qffee0/9+/fXfffdd/JLYFnvJfvPeXl5fnw1ocsX87Rlyxbl5uaqW7duev3113XPPffoww8/1BNPPBGw1xVqzjVPgwcPVq1atfT444/L6/Xq+PHj+uMf/yiPx6P8/Hzl5ORIUpmfTXwu+UZV50iStm7dqszMTI0cOVJ///vfdf311+svf/mLXn755UC+tKC2du1aTZgwQSNGjNCQIUPO+bmSnZ1dZrhR8r3CZ5PvOTFPfDb5VkXnqDx4L8EfCLAQ0saPH697771XTz75pLp27ap7771Xd9xxhySVWpWTk5Ojzz//XNddd508Hk+pY0RHR5/2l679YRobG+vwK6gefDFP99xzj7777jv97ne/U7t27TRs2DA9//zzWrlypTZs2ODX1xOKzjVHP/zwg55++mlNnjxZgwYNUo8ePfTSSy8pKirq5Je+GjVqnPZesv8cExPj3xcUonwxT5MmTdK3336r66+/Xu3atdNll12mxx9/XJ988gll0z5yrnmKj4/XK6+8op9//lkDBgzQBRdcoEaNGqlz586qWbPmyf+JUtZnE+8l36jqHEnS3/72N3311VcaM2aM2rdvrxtuuEH33HOP3nrrLf7HSiV89dVXuv3229WjRw9NmzZN0rk/V8r6N5xU+r3CZ5NvOTVPfDb5TmXmqDx4L8EfCLAQ8u69916tXbtW33zzjb766is1btxY4eHhpcrSli5dqvz8fI0aNeq05yclJSkjI6PUffafExMTnR18NVLVeQoLC1NCQkKp+9q2bStJlNT4yNnmaM2aNapXr16p+YqMjFSnTp20a9cuSVKjRo3KfC/FxsZS5ulDVZ2niIiI03r28F7yvXP9ndezZ0998cUXWrp0qZYvX66HHnpIv/zyi5o1a6b4+HjFxsaW+X7ic8l3qjJHkll5cOrfbe3atdOJEyd09OhRv7+eYPbOO+/o/vvv18UXX6yZM2eeDHHP9bmSlJQkr9d72pfqku8VPpt8x8l54rPJNyo7R+XBewn+QICFkPbOO+/o6aefVnh4uBITExUWFqYvvvhCPXv2VFxc3MnHrV69Wh06dDgtAJGkvn37as2aNSosLDx53/Lly9WyZUvVq1fPL68j1PlinlJSUvTrX/+61H32yqs2bdo4Ov7q4FxzlJSUpCNHjpT6h0tRUZFSU1PVokULSVKfPn1ONje2LV++XL169aIfjI/4Yp5uvvlmTZgwodRxN2zYoMjIyJOPQdWca5527dql6667TocPH1a9evUUHR2t1atXy+v1atCgQfJ4POrVq9dp76cVK1aoT58+AXpVoaWqc2RZloYNG6YZM2aUOu6GDRvUoEGDMj/HULb33ntPTz/9tG688Ua9+OKLpUqUzvW50rt3bxUVFZ1sEi5JO3bsUHp6uvr27VuuY6B8nJ4nPpuqripzVB68l+AP/CYhpLVu3Vr//Oc/NXfuXO3Zs0evvfaa5s2bp9///velHvfTTz+pQ4cOZR7jyiuv1PHjx/X4448rNTVVH3/8sd566y3ddddd/ngJ1YIv5mnkyJFatmyZZsyYod27d2vRokV67LHHNHbs2FJXiULlnGuOLr74YjVt2lTJyclat26dtm3bpieffFL79+/XLbfcIsn843P9+vWaNm2atm3bpjfeeEOff/75ybIcVJ0v5mnkyJH65JNP9P777+uXX37RwoULNXXqVP3mN785WRqFqjnXPJ133nk6cOCAnn76ae3cuVMrVqzQH/7wB1111VVq3ry5JOm2227Tp59+qjfffFPbtm3T1KlTtWnTJt16662BfGkho6pz5PF4NHz4cP3973/XwoULtXv3bn3wwQd6/fXXlZycHOBXFzx27Nih5557TsOHD9ddd92lgwcP6sCBAzpw4ICOHTt2zs+VxMREjRkzRk888YRWrFih9evX68EHH1S/fv3Uo0cPSXw2+YI/5onPpqqp6hyVB+8l+IUFhJBHHnnEuummm0rd9+GHH1rDhw+3unXrZl1xxRXW4sWLT3veqFGjrOeff/6Mx123bp11zTXXWF26dLEuvvhi6+233/b52KsTp+Zp4cKF1vjx461u3bpZ559/vjVlyhQrJyfH5+OvDiozR2lpadaDDz5onX/++VafPn2s2267zdq0aVOpxyxatMgaO3as1aVLF+vSSy+1Pv30U8dfSyhzap7eeecda9SoUSf/znvllVeswsJCx19PqKrMPKWmplq33nqr1aNHD2vw4MHWiy++aOXn55d6zJw5c6zhw4dbXbt2tS6//HLru+++c/y1hCon5ig/P9+aMWOGdckll1idO3e2Ro4caX3wwQd+eT2h4pVXXrHatWtX5s8jjzxiWda5P1eysrKsxx9/3OrTp4/Vp08f68EHH7QOHz5c6jF8NlWNv+aJz6bK88UclXTTTTedfF5JvJfgNI9lWVagQzQAAAAAAADgTCghBAAAAAAAgKsRYAEAAAAAAMDVCLAAAAAAAADgagRYAAAAAAAAcDUCLAAAAAAAALgaARYAAAAAAABcjQALAAAAAAAArkaABQAAAAAAAFcjwAIAAPCRCRMmqH379lqyZEmZ+7/99lu1b99e06ZN8/PIAAAAgpvHsiwr0IMAAAAIBZmZmRozZowiIyO1YMECxcbGntx3/PhxjRs3TrVq1dLs2bMVFRUVwJECAAAEF1ZgAQAA+Ejt2rX11FNPae/evfqf//mfUvteeOEFHThwQFOnTiW8AgAAqCACLAAAAB8aOnSoxo0bp3feeUfr1q2TJK1Zs0bvv/++kpOT1aFDB+3bt08PPvig+vXrp+7du+vWW2/VTz/9VOo4e/bsUUpKii644AJ17txZAwcOVEpKio4cOVLqXM8995xuvfVWdevWTY8//rhfXysAAIC/UEIIAADgY16vV2PGjFGjRo303nvv6corr1RcXJzeffddHT16VOPHj1dMTIzuu+8+xcTEaNasWdq4caNmz56t1q1bKzs7W2PGjFFCQoLuvvtu1apVS99//71mzJihK6+8UpMmTZJkAqz09HTddtttGjBggOLi4tSzZ88Av3oAAADfiwj0AAAAAEJNfHy8/vSnP+m+++7T7bffrj179mju3LkKDw/XrFmz5PV69f777+u8886TJA0ePFijR4/WX/7yF02fPl07d+5UUlKS/vznP6tp06aSpAEDBmjdunVauXJlqXM1btxYDz30kN9fIwAAgD8RYAEAADhg+PDhGj16tBYuXKiJEyeqefPmkqRly5apY8eOSkxMVEFBgSQpLCxMgwcP1rx58yRJHTt21HvvvaeioiLt3LlTu3btUmpqqrZv337yObaOHTv694UBAAAEAAEWAACAQy688EItXLhQF1100cn7vF6vdu3apc6dO5f5nOzsbMXExOjNN9/UzJkz5fV6Vb9+fXXp0kUxMTE6duxYqceXvNIhAABAqCLAAgAA8KNatWqpX79+SklJKXN/VFSU5s+frylTpujhhx/WFVdcobp160qSfv/732vDhg3+HC4AAIArEGABAAD4Ub9+/TR//ny1bNlSNWvWPHn/M888o/z8fD311FNas2aNateurTvuuOPk/qysLK1Zs0YREfzzDQAAVD9hgR4AAABAdfLrX/9aRUVF+vWvf62FCxdq2bJlevLJJ/X222+rZcuWkqRu3bopMzNTU6ZM0YoVKzR//nzdeOONOnjwoLKzswP8CgAAAPyP/4UHAADgR4mJifrnP/+pF154QX/605+Um5urFi1a6Nlnn9VVV10lSbr88su1Z88effTRR3rvvfeUmJioiy66SDfccIOefPJJbdu2Ta1btw7wKwEAAPAfj2VZVqAHAQAAAAAAAJwJJYQAAAAAAABwNQIsAAAAAAAAuBoBFgAAAAAAAFyNAAsAAAAAAACuRoAFAAAAAAAAVyPAAgAAAAAAgKsRYAEAAAAAAMDVCLAAAAAAAADgagRYAAAAAAAAcDUCLAAAAAAAALgaARYAAAAAAABcjQALAAAAAAAArkaABQAAAAAAAFcjwAIAAAAAAICrEWABAAAAAADA1QiwAAAAAAAA4GoEWAAAAAAAAHA1AiwAAAAAAAC4GgEWAAAAAAAAXI0ACwAAAAAAAK5GgAUAAAAAAABXI8ACAAAAAACAqxFgAQAAAAAAwNUIsAAAAAAAAOBqBFgAAAAAAABwNQIsAAAAAAAAuBoBFgAAAAAAAFyNAAsAAAAAAACuRoAFAAAAAAAAVyPAAgAAAAAAgKsRYAEAAAAAAMDVCLAAAAAAAADgagRYAAAAAAAAcDUCLAAAAAAAALgaARYAAAAAAABcjQALAAAAAAAArkaABQAAAAAAAFcjwAIAAAAAAICrEWABAAAAAADA1QiwAAAAAAAA4GoEWAAAAAAAAHA1AiwAAAAAAAC42v8HEWtv2MCFlF0AAAAASUVORK5CYII=;" vertex="1" parent="1">
          <mxGeometry x="90" y="-50" width="785" height="523.33" as="geometry" />
        </mxCell>
        <mxCell id="AQsv0ITiNXBHTB66A1DP-8" value="" style="ellipse;shape=cloud;whiteSpace=wrap;html=1;strokeWidth=2;strokeColor=#A680B8;" vertex="1" parent="1">
          <mxGeometry x="527" y="210" width="300" height="240" as="geometry" />
        </mxCell>
        <mxCell id="AQsv0ITiNXBHTB66A1DP-4" value="" style="shape=cylinder3;whiteSpace=wrap;html=1;boundedLbl=1;backgroundOutline=1;size=6.827586206896683;strokeColor=#A680B8;" vertex="1" parent="1">
          <mxGeometry x="585" y="300" width="40" height="50" as="geometry" />
        </mxCell>
        <mxCell id="AQsv0ITiNXBHTB66A1DP-5" value="" style="shape=cylinder3;whiteSpace=wrap;html=1;boundedLbl=1;backgroundOutline=1;size=6.827586206896683;strokeColor=#A680B8;" vertex="1" parent="1">
          <mxGeometry x="635" y="260" width="40" height="50" as="geometry" />
        </mxCell>
        <mxCell id="AQsv0ITiNXBHTB66A1DP-6" value="" style="shape=cylinder3;whiteSpace=wrap;html=1;boundedLbl=1;backgroundOutline=1;size=6.827586206896683;strokeColor=#A680B8;" vertex="1" parent="1">
          <mxGeometry x="690" y="280" width="40" height="50" as="geometry" />
        </mxCell>
        <mxCell id="AQsv0ITiNXBHTB66A1DP-7" value="" style="shape=cylinder3;whiteSpace=wrap;html=1;boundedLbl=1;backgroundOutline=1;size=6.827586206896683;strokeColor=#A680B8;" vertex="1" parent="1">
          <mxGeometry x="635" y="340" width="40" height="50" as="geometry" />
        </mxCell>
        <mxCell id="AQsv0ITiNXBHTB66A1DP-9" value="&lt;font color=&quot;#a680b8&quot;&gt;&lt;b&gt;ESGF network&lt;/b&gt;&lt;/font&gt;" style="text;html=1;align=center;verticalAlign=middle;whiteSpace=wrap;rounded=0;" vertex="1" parent="1">
          <mxGeometry x="713" y="222" width="90" height="30" as="geometry" />
        </mxCell>
        <mxCell id="AQsv0ITiNXBHTB66A1DP-11" value="" style="shape=flexArrow;endArrow=classic;html=1;rounded=0;strokeWidth=2;" edge="1" parent="1">
          <mxGeometry width="50" height="50" relative="1" as="geometry">
            <mxPoint x="491" y="282" as="sourcePoint" />
            <mxPoint x="538" y="300" as="targetPoint" />
          </mxGeometry>
        </mxCell>
        <mxCell id="AQsv0ITiNXBHTB66A1DP-12" value="" style="ellipse;whiteSpace=wrap;html=1;aspect=fixed;strokeColor=#97D077;fillColor=#97D077;" vertex="1" parent="1">
          <mxGeometry x="600" y="334" width="10" height="10" as="geometry" />
        </mxCell>
        <mxCell id="AQsv0ITiNXBHTB66A1DP-13" value="" style="ellipse;whiteSpace=wrap;html=1;aspect=fixed;strokeColor=#97D077;fillColor=#97D077;" vertex="1" parent="1">
          <mxGeometry x="651" y="294" width="10" height="10" as="geometry" />
        </mxCell>
        <mxCell id="AQsv0ITiNXBHTB66A1DP-14" value="" style="ellipse;whiteSpace=wrap;html=1;aspect=fixed;strokeColor=#97D077;fillColor=#97D077;" vertex="1" parent="1">
          <mxGeometry x="704" y="314" width="10" height="10" as="geometry" />
        </mxCell>
        <mxCell id="AQsv0ITiNXBHTB66A1DP-15" value="" style="ellipse;whiteSpace=wrap;html=1;aspect=fixed;strokeColor=#97D077;fillColor=#97D077;" vertex="1" parent="1">
          <mxGeometry x="651" y="375" width="10" height="10" as="geometry" />
        </mxCell>
        <mxCell id="AQsv0ITiNXBHTB66A1DP-16" value="&lt;font style=&quot;font-size: 7px;&quot;&gt;node 1&lt;/font&gt;" style="text;html=1;align=center;verticalAlign=middle;whiteSpace=wrap;rounded=0;" vertex="1" parent="1">
          <mxGeometry x="577.5" y="350" width="55" height="16" as="geometry" />
        </mxCell>
        <mxCell id="AQsv0ITiNXBHTB66A1DP-17" value="&lt;font style=&quot;font-size: 7px;&quot;&gt;node 2&lt;/font&gt;" style="text;html=1;align=center;verticalAlign=middle;whiteSpace=wrap;rounded=0;" vertex="1" parent="1">
          <mxGeometry x="628.5" y="310" width="55" height="16" as="geometry" />
        </mxCell>
        <mxCell id="AQsv0ITiNXBHTB66A1DP-18" value="&lt;font style=&quot;font-size: 7px;&quot;&gt;node 3&lt;/font&gt;" style="text;html=1;align=center;verticalAlign=middle;whiteSpace=wrap;rounded=0;" vertex="1" parent="1">
          <mxGeometry x="682.5" y="330" width="55" height="16" as="geometry" />
        </mxCell>
        <mxCell id="AQsv0ITiNXBHTB66A1DP-19" value="&lt;font style=&quot;font-size: 7px;&quot;&gt;node N&lt;/font&gt;" style="text;html=1;align=center;verticalAlign=middle;whiteSpace=wrap;rounded=0;" vertex="1" parent="1">
          <mxGeometry x="628.5" y="390" width="55" height="16" as="geometry" />
        </mxCell>
        <mxCell id="AQsv0ITiNXBHTB66A1DP-20" value="&lt;font color=&quot;#97d077&quot;&gt;CMIP6Entry&lt;/font&gt;" style="text;html=1;align=center;verticalAlign=middle;whiteSpace=wrap;rounded=0;" vertex="1" parent="1">
          <mxGeometry x="690" y="350" width="60" height="30" as="geometry" />
        </mxCell>
      </root>
    </mxGraphModel>
  </diagram>
</mxfile>
